<svg width="521" height="128" viewBox="0 0 521 128" fill="none" xmlns="http://www.w3.org/2000/svg">
<path d="M48.7547 78.6375V88.3942C48.7534 89.0849 48.4799 89.747 47.994 90.2353C47.5081 90.7237 46.8495 90.9987 46.1624 91H36.451C35.7644 90.9987 35.1063 90.7236 34.6212 90.235C34.1361 89.7465 33.8637 89.0845 33.8637 88.3942V80.5869C33.8624 79.8967 33.5886 79.2351 33.1026 78.7475C32.6166 78.2599 31.958 77.9861 31.2713 77.9861H23.1826C22.8429 77.9861 22.5064 77.9188 22.1925 77.7881C21.8786 77.6574 21.5933 77.4658 21.3531 77.2243C21.1128 76.9828 20.9222 76.6961 20.7922 76.3806C20.6622 76.065 20.5953 75.7269 20.5953 75.3853V54.564C20.594 53.8738 20.3202 53.2123 19.8342 52.7247C19.3482 52.2371 18.6896 51.9633 18.0029 51.9633H10.0874C9.40119 51.9633 8.74307 51.6892 8.25784 51.2015C7.77261 50.7138 7.5 50.0522 7.5 49.3625V39.6008C7.5 38.911 7.77261 38.2495 8.25784 37.7618C8.74307 37.274 9.40119 37 10.0874 37H19.7987C20.485 37 21.1431 37.274 21.6283 37.7618C22.1135 38.2495 22.3861 38.911 22.3861 39.6008V47.3982C22.3861 48.0884 22.6586 48.7505 23.1437 49.239C23.6287 49.7275 24.2869 50.0026 24.9735 50.004H32.889C33.5757 50.004 34.2344 50.2778 34.7204 50.7654C35.2064 51.253 35.4801 51.9145 35.4814 52.6047V73.421C35.4814 74.1113 35.7538 74.7733 36.2389 75.2618C36.724 75.7504 37.3821 76.0255 38.0688 76.0268H46.1575C46.4987 76.0261 46.8367 76.0932 47.1521 76.2242C47.4676 76.3552 47.7542 76.5474 47.9955 76.79C48.2368 77.0326 48.428 77.3206 48.5583 77.6377C48.6886 77.9547 48.7554 78.2945 48.7547 78.6375Z" fill="#FF6224"/>
<path d="M79.5 78.6375V88.3942C79.5 89.0845 79.2276 89.7465 78.7425 90.2351C78.2574 90.7236 77.5993 90.9987 76.9126 91H67.2013C66.5146 90.9987 65.8565 90.7236 65.3714 90.2351C64.8863 89.7465 64.6139 89.0845 64.6139 88.3942V80.5869C64.6139 80.2453 64.5469 79.9072 64.4169 79.5916C64.2869 79.2761 64.0963 78.9893 63.856 78.7478C63.6158 78.5063 63.3305 78.3148 63.0166 78.1841C62.7027 78.0534 62.3663 77.9861 62.0265 77.9861H53.9328C53.2466 77.9861 52.5885 77.7121 52.1033 77.2243C51.618 76.7366 51.3455 76.0751 51.3455 75.3853V54.564C51.3455 53.8743 51.0729 53.2128 50.5876 52.725C50.1024 52.2373 49.4443 51.9633 48.7581 51.9633H35.7412C35.055 51.9633 34.3969 51.6892 33.9116 51.2015C33.4264 50.7138 33.1538 50.0522 33.1538 49.3625V39.6008C33.1538 38.911 33.4264 38.2495 33.9116 37.7618C34.3969 37.274 35.055 37 35.7412 37H50.3115C50.9977 37 51.6558 37.274 52.1411 37.7618C52.6263 38.2495 52.8989 38.911 52.8989 39.6008V47.3982C52.8989 48.0884 53.1713 48.7505 53.6564 49.239C54.1415 49.7275 54.7996 50.0026 55.4863 50.004H63.6442C63.984 50.004 64.3205 50.0712 64.6344 50.2019C64.9483 50.3326 65.2335 50.5242 65.4738 50.7657C65.714 51.0072 65.9046 51.2939 66.0347 51.6095C66.1647 51.925 66.2316 52.2632 66.2316 52.6047V73.421C66.2316 74.1113 66.504 74.7733 66.9891 75.2619C67.4742 75.7504 68.1323 76.0255 68.819 76.0268H76.9126C77.2532 76.0268 77.5905 76.0944 77.9051 76.2257C78.2196 76.3571 78.5053 76.5495 78.7457 76.7921C78.9861 77.0346 79.1765 77.3225 79.3059 77.6392C79.4354 77.9559 79.5013 78.2952 79.5 78.6375Z" fill="#FF6224"/>
<path d="M181.636 91.0071C165.848 91.0071 154.368 79.6387 154.368 63.957C154.368 48.2752 165.826 37.0001 181.615 37.0001C185.203 36.9886 188.748 37.7772 191.989 39.3075C195.23 40.8379 198.083 43.071 200.338 45.8422C205.196 51.6556 207.423 59.4139 206.122 66.0885L206.042 66.4904H164.546C164.485 68.3707 164.802 70.2441 165.479 72.0013C166.155 73.7585 167.178 75.3643 168.486 76.7249C171.624 79.9617 176.294 81.7488 181.636 81.7488C189.588 81.7488 195.538 77.4426 197.642 70.2656L197.808 69.6914L206.678 74.3134L206.519 74.7225C202.594 84.7631 193.058 91.0071 181.636 91.0071ZM197.02 59.134C196.528 53.658 190.861 46.1652 181.26 46.1652C173.106 46.1652 166.39 51.5838 165.067 59.134H197.02Z" fill="#FFEFE9"/>
<path d="M243.931 89.7518L231.865 68.4791H230.708L218.643 89.7518H208.153L222.901 63.7136L208.146 37.7759H218.643L230.708 58.9552H231.771L243.931 37.7759H254.326L239.673 63.7136L254.42 89.7518H243.931Z" fill="#FFEFE9"/>
<path d="M260.955 109V38.2565H270.859V46.0292C275.464 40.2876 281.992 37.0005 288.976 37.0005C302.856 37.0005 313.316 48.6344 313.316 64.0506C313.316 79.4669 302.856 91.0075 288.976 91.0075C285.47 90.9834 282.017 90.1662 278.878 88.6178C275.738 87.0695 272.996 84.8308 270.859 82.0721V109H260.955ZM286.98 46.1655C277.662 46.1655 270.895 53.6512 270.895 63.9573C270.895 74.2635 277.662 81.7491 286.98 81.7491C296.66 81.7491 303.159 74.5721 303.159 63.9573C303.159 53.3426 296.624 46.1655 286.944 46.1655H286.98Z" fill="#FFEFE9"/>
<path d="M381.147 91.0075C365.077 91.0075 353.423 79.6319 353.423 63.9573C353.423 48.2828 365.077 37.0005 381.147 37.0005C397.095 37.0005 408.676 48.3402 408.676 63.9573C408.676 79.5745 397.095 91.0075 381.147 91.0075ZM381.147 46.1655C370.658 46.1655 363.616 53.3425 363.616 63.9573C363.616 74.5721 370.658 81.7491 381.147 81.7491C391.514 81.7491 398.497 74.5721 398.497 63.9573C398.497 53.3425 391.485 46.1655 381.147 46.1655Z" fill="#FFEFE9"/>
<path d="M488.147 91.0073C472.358 91.0073 460.9 79.6317 460.9 63.9571C460.9 48.2826 472.358 37.0003 488.147 37.0003C491.671 36.9829 495.154 37.7509 498.34 39.2477C501.525 40.7444 504.332 42.9318 506.552 45.6486C511.41 51.462 513.622 59.2849 512.336 66.0887L512.256 66.4906H471.411C471.34 68.3958 471.651 70.296 472.328 72.0803C473.004 73.8646 474.032 75.4972 475.351 76.8829C478.387 80.0192 482.927 81.7489 488.147 81.7489C496.099 81.7489 502.048 77.4427 504.145 70.2657L504.311 69.6916L513.189 74.3136L513.03 74.7226C509.097 84.7633 499.562 91.0073 488.147 91.0073ZM503.538 59.1342C503.039 53.6581 497.371 46.1653 487.778 46.1653C479.623 46.1653 472.908 51.584 471.585 59.1342H503.538Z" fill="#FFEFE9"/>
<path d="M320.458 89.8592V46.8761H329.835V37.7183H354.32V48.0101H330.825V89.8592H320.458Z" fill="#FFEFE9"/>
<path d="M148.816 37.9407V89.45H138.449V50.1129L107.19 69.1032V89.45H96.8376V46.51H89.5V37.9407H107.19V57.1248L139.548 37.9407H148.816Z" fill="#FFEFE9"/>
<path d="M428.094 89.7518L412.103 45.4768H421.761V37.8333H436.863V46.4601H423.373L434.521 81.003H435.15L449.015 37.7759H460.358L441.482 89.7518H428.094Z" fill="#FFEFE9"/>
</svg>
