<svg width="285" height="71" viewBox="0 0 285 71" fill="none" xmlns="http://www.w3.org/2000/svg">
<path d="M10 61V10.718H33.5611C39.5951 10.718 44.1915 11.9151 47.3525 14.3097C50.5118 16.656 52.0923 19.8166 52.0923 23.7913C52.0923 26.4729 51.4707 28.7717 50.2255 30.6872C48.9806 32.5546 47.3047 34.0151 45.1965 35.0688C43.1375 36.0744 40.8877 36.577 38.4454 36.577L39.738 33.9913C42.5636 33.9913 45.101 34.5181 47.3525 35.5717C49.6023 36.577 51.3752 38.0618 52.6678 40.0253C54.0081 41.9885 54.679 44.4308 54.679 47.3518C54.679 51.6619 53.0273 55.014 49.7232 57.4083C46.4175 59.8025 41.5093 61 34.9969 61H10ZM19.3378 53.6731H34.423C37.9176 53.6731 40.5998 53.0982 42.4682 51.9492C44.3347 50.7997 45.2696 48.9562 45.2696 46.4181C45.2696 43.9278 44.3347 42.1081 42.4682 40.959C40.5998 39.7619 37.9176 39.1631 34.423 39.1631H18.6195V31.9081H32.5546C35.811 31.9081 38.3007 31.3336 40.0259 30.1842C41.7972 29.0348 42.6826 27.3111 42.6826 25.0123C42.6826 22.6658 41.7972 20.918 40.0259 19.7686C38.3007 18.6195 35.811 18.0449 32.5546 18.0449H19.3378V53.6731Z" fill="white"/>
<path d="M82.0412 60.4974V52.7394L81.5388 51.0874V37.5114C81.5388 34.8776 80.7486 32.8422 79.1681 31.4055C77.5876 29.9211 75.1931 29.1789 71.9847 29.1789C69.83 29.1789 67.6979 29.5139 65.5912 30.1845C63.5323 30.8552 61.7848 31.7889 60.3475 32.986L56.8289 26.4494C58.8879 24.8692 61.3302 23.6959 64.1555 22.9295C67.0285 22.1155 69.997 21.7086 73.0625 21.7086C78.6165 21.7086 82.903 23.0495 85.9192 25.731C88.9847 28.3648 90.5174 32.4592 90.5174 38.0141V60.4974H82.0412ZM69.9732 61C67.1001 61 64.5866 60.5212 62.4303 59.5633C60.2759 58.558 58.6003 57.1929 57.4028 55.469C56.2534 53.6973 55.6792 51.7099 55.6792 49.5072C55.6792 47.3522 56.1819 45.4129 57.1865 43.6886C58.2408 41.9649 59.9406 40.6002 62.2874 39.5942C64.634 38.5889 67.7456 38.086 71.6252 38.086H82.7598V44.0478H72.2723C69.2068 44.0478 67.1478 44.5507 66.0936 45.5563C65.0412 46.5142 64.515 47.7114 64.515 49.148C64.515 50.7759 65.1605 52.0691 66.4531 53.0267C67.7456 53.9846 69.5424 54.4634 71.8416 54.4634C74.0437 54.4634 76.0072 53.9607 77.7308 52.9551C79.5038 51.9492 80.7725 50.4648 81.5388 48.5013L83.0461 53.8888C82.1843 56.1396 80.6277 57.8874 78.3779 59.1326C76.1742 60.3778 73.3727 61 69.9732 61Z" fill="white"/>
<path d="M107.751 61C104.542 61 101.454 60.5931 98.4842 59.779C95.5634 58.9172 93.2404 57.8874 91.5171 56.6903L94.9656 49.8664C96.6893 50.9677 98.7482 51.8776 101.143 52.5956C103.537 53.3143 105.932 53.6735 108.326 53.6735C111.152 53.6735 113.187 53.2904 114.432 52.524C115.724 51.758 116.37 50.7282 116.37 49.4353C116.37 48.3817 115.939 47.5917 115.077 47.0649C114.215 46.4904 113.09 46.0593 111.702 45.772C110.314 45.4847 108.757 45.221 107.032 44.9818C105.356 44.7422 103.656 44.4311 101.933 44.0478C100.257 43.617 98.7244 43.0183 97.3348 42.2522C95.9468 41.4381 94.8209 40.3606 93.9591 39.0197C93.0973 37.6788 92.6665 35.9071 92.6665 33.7043C92.6665 31.262 93.3613 29.1551 94.7493 27.3831C96.1389 25.5634 98.0773 24.1747 100.567 23.2168C103.106 22.2112 106.099 21.7086 109.547 21.7086C112.133 21.7086 114.742 21.9958 117.376 22.5704C120.009 23.1449 122.189 23.959 123.913 25.0127L120.466 31.8366C118.645 30.7352 116.802 29.993 114.934 29.61C113.114 29.1789 111.295 28.9635 109.474 28.9635C106.746 28.9635 104.711 29.3704 103.369 30.1845C102.076 30.9986 101.43 32.0284 101.43 33.2733C101.43 34.4227 101.861 35.2845 102.723 35.859C103.585 36.4339 104.711 36.8888 106.099 37.2241C107.488 37.5591 109.019 37.8464 110.695 38.086C112.421 38.2775 114.12 38.5889 115.796 39.0197C117.472 39.4508 119.005 40.0495 120.393 40.8155C121.83 41.5339 122.979 42.5633 123.841 43.9043C124.703 45.2452 125.134 46.993 125.134 49.148C125.134 51.5423 124.415 53.6254 122.979 55.3974C121.59 57.1691 119.602 58.558 117.017 59.5633C114.432 60.5212 111.342 61 107.751 61Z" fill="white"/>
<path d="M142.368 61C139.161 61 136.072 60.5931 133.103 59.779C130.181 58.9172 127.859 57.8874 126.134 56.6903L129.583 49.8664C131.306 50.9677 133.365 51.8776 135.76 52.5956C138.155 53.3143 140.549 53.6735 142.944 53.6735C145.769 53.6735 147.804 53.2904 149.049 52.524C150.342 51.758 150.989 50.7282 150.989 49.4353C150.989 48.3817 150.558 47.5917 149.696 47.0649C148.833 46.4904 147.709 46.0593 146.319 45.772C144.931 45.4847 143.374 45.221 141.651 44.9818C139.975 44.7422 138.274 44.4311 136.55 44.0478C134.874 43.617 133.342 43.0183 131.954 42.2522C130.564 41.4381 129.44 40.3606 128.577 39.0197C127.715 37.6788 127.284 35.9071 127.284 33.7043C127.284 31.262 127.979 29.1551 129.367 27.3831C130.756 25.5634 132.696 24.1747 135.186 23.2168C137.724 22.2112 140.716 21.7086 144.165 21.7086C146.75 21.7086 149.361 21.9958 151.994 22.5704C154.628 23.1449 156.807 23.959 158.53 25.0127L155.083 31.8366C153.263 30.7352 151.42 29.993 149.552 29.61C147.733 29.1789 145.912 28.9635 144.093 28.9635C141.363 28.9635 139.328 29.3704 137.988 30.1845C136.693 30.9986 136.048 32.0284 136.048 33.2733C136.048 34.4227 136.479 35.2845 137.34 35.859C138.202 36.4339 139.328 36.8888 140.716 37.2241C142.106 37.5591 143.638 37.8464 145.314 38.086C147.038 38.2775 148.738 38.5889 150.413 39.0197C152.089 39.4508 153.622 40.0495 155.012 40.8155C156.447 41.5339 157.597 42.5633 158.459 43.9043C159.32 45.2452 159.751 46.993 159.751 49.148C159.751 51.5423 159.034 53.6254 157.597 55.3974C156.209 57.1691 154.221 58.558 151.634 59.5633C149.049 60.5212 145.96 61 142.368 61Z" fill="white"/>
<path d="M176.985 61C173.776 61 170.687 60.5931 167.718 59.779C164.797 58.9172 162.474 57.8874 160.751 56.6903L164.198 49.8664C165.922 50.9677 167.981 51.8776 170.375 52.5956C172.77 53.3143 175.164 53.6735 177.559 53.6735C180.385 53.6735 182.419 53.2904 183.663 52.524C184.956 51.758 185.603 50.7282 185.603 49.4353C185.603 48.3817 185.173 47.5917 184.312 47.0649C183.449 46.4904 182.325 46.0593 180.934 45.772C179.546 45.4847 177.989 45.221 176.266 44.9818C174.59 44.7422 172.89 44.4311 171.165 44.0478C169.489 43.617 167.957 43.0183 166.569 42.2522C165.181 41.4381 164.055 40.3606 163.193 39.0197C162.331 37.6788 161.899 35.9071 161.899 33.7043C161.899 31.262 162.594 29.1551 163.983 27.3831C165.371 25.5634 167.311 24.1747 169.801 23.2168C172.339 22.2112 175.333 21.7086 178.78 21.7086C181.367 21.7086 183.976 21.9958 186.607 22.5704C189.245 23.1449 191.42 23.959 193.147 25.0127L189.697 31.8366C187.879 30.7352 186.036 29.993 184.168 29.61C182.347 29.1789 180.526 28.9635 178.708 28.9635C175.978 28.9635 173.943 29.3704 172.603 30.1845C171.31 30.9986 170.663 32.0284 170.663 33.2733C170.663 34.4227 171.094 35.2845 171.956 35.859C172.817 36.4339 173.943 36.8888 175.333 37.2241C176.721 37.5591 178.253 37.8464 179.93 38.086C181.653 38.2775 183.352 38.5889 185.031 39.0197C186.705 39.4508 188.237 40.0495 189.628 40.8155C191.063 41.5339 192.212 42.5633 193.075 43.9043C193.938 45.2452 194.369 46.993 194.369 49.148C194.369 51.5423 193.65 53.6254 192.212 55.3974C190.824 57.1691 188.837 58.558 186.25 59.5633C183.663 60.5212 180.576 61 176.985 61Z" fill="white"/>
<path d="M216.558 61C212.297 61 208.561 60.1621 205.353 58.4861C202.194 56.7619 199.726 54.4156 197.953 51.4465C196.229 48.4777 195.369 45.1014 195.369 41.3185C195.369 37.4872 196.207 34.1112 197.883 31.1901C199.607 28.2213 201.952 25.8987 204.922 24.2224C207.94 22.5465 211.362 21.7086 215.195 21.7086C218.928 21.7086 222.256 22.5227 225.179 24.1509C228.099 25.7787 230.397 28.0775 232.074 31.0464C233.75 34.0155 234.589 37.5114 234.589 41.5339C234.589 41.9169 234.563 42.348 234.516 42.8268C234.516 43.3055 234.491 43.7605 234.444 44.1915H202.48V38.2298H229.703L226.184 40.0972C226.231 37.8944 225.776 35.9548 224.821 34.2789C223.861 32.603 222.545 31.2859 220.868 30.3283C219.239 29.3704 217.349 28.8916 215.195 28.8916C212.991 28.8916 211.051 29.3704 209.374 30.3283C207.748 31.2859 206.455 32.6268 205.497 34.3508C204.587 36.0267 204.131 38.0141 204.131 40.3126V41.7493C204.131 44.0478 204.659 46.0832 205.71 47.8548C206.765 49.6268 208.25 50.9916 210.166 51.9492C212.081 52.9071 214.285 53.3859 216.774 53.3859C218.928 53.3859 220.868 53.0509 222.592 52.3802C224.316 51.7099 225.848 50.6566 227.188 49.2199L232.002 54.751C230.278 56.7619 228.099 58.3185 225.465 59.4199C222.881 60.4732 219.911 61 216.558 61Z" fill="white"/>
<path d="M254.483 61C250.938 61 247.465 60.4973 244.065 59.4917C240.712 58.4381 237.89 57.0017 235.588 55.1817L239.613 47.9267C241.431 49.4114 243.635 50.6086 246.219 51.5184C248.806 52.4283 251.512 52.8832 254.338 52.8832C257.691 52.8832 260.3 52.2126 262.168 50.872C264.033 49.4833 264.969 47.6156 264.969 45.269C264.969 42.9705 264.109 41.1508 262.382 39.8099C260.658 38.469 257.88 37.7987 254.049 37.7987H249.453V31.4055L263.82 14.3098L265.041 17.8296H238.031V10H272.297V16.2494L257.93 33.3452L253.045 30.4718H255.845C262.024 30.4718 266.645 31.8608 269.71 34.638C272.821 37.3676 274.378 40.8874 274.378 45.1971C274.378 48.0228 273.659 50.6324 272.224 53.0267C270.786 55.4212 268.586 57.3606 265.616 58.8453C262.693 60.282 258.982 61 254.483 61Z" fill="white"/>
</svg>
