<svg width="169" height="40" viewBox="0 0 169 40" fill="none" xmlns="http://www.w3.org/2000/svg">
<path d="M5.63379 34.3662V6.03833H18.9077C22.3071 6.03833 24.8966 6.71275 26.6774 8.06184C28.4574 9.38366 29.3478 11.1643 29.3478 13.4036C29.3478 14.9143 28.9975 16.2094 28.296 17.2885C27.5947 18.3406 26.6505 19.1635 25.4628 19.7571C24.3028 20.3236 23.0353 20.6068 21.6594 20.6068L22.3876 19.15C23.9795 19.15 25.409 19.4468 26.6774 20.0404C27.9449 20.6068 28.9438 21.4433 29.672 22.5495C30.4271 23.6555 30.8051 25.0314 30.8051 26.6771C30.8051 29.1053 29.8745 30.9938 28.013 32.3427C26.1507 33.6916 23.3855 34.3662 19.7165 34.3662H5.63379ZM10.8945 30.2384H19.3932C21.362 30.2384 22.8731 29.9145 23.9257 29.2671C24.9773 28.6196 25.504 27.581 25.504 26.1511C25.504 24.7481 24.9773 23.7229 23.9257 23.0755C22.8731 22.4011 21.362 22.0637 19.3932 22.0637H10.4898V17.9764H18.3406C20.1752 17.9764 21.5778 17.6527 22.5498 17.0052C23.5477 16.3576 24.0465 15.3866 24.0465 14.0915C24.0465 12.7695 23.5477 11.7848 22.5498 11.1372C21.5778 10.4899 20.1752 10.1662 18.3406 10.1662H10.8945V30.2384Z" fill="#1B1919"/>
<path d="M47.6565 34.0831V29.7124L47.3735 28.7817V21.1332C47.3735 19.6494 46.9283 18.5027 46.0379 17.6933C45.1475 16.857 43.7984 16.4389 41.9909 16.4389C40.777 16.4389 39.5758 16.6276 38.3889 17.0054C37.229 17.3832 36.2445 17.9093 35.4347 18.5837L33.4524 14.9011C34.6124 14.0109 35.9883 13.3499 37.5801 12.9181C39.1987 12.4595 40.8711 12.2302 42.5981 12.2302C45.7271 12.2302 48.142 12.9857 49.8413 14.4964C51.5683 15.9802 52.4319 18.2869 52.4319 21.4164V34.0831H47.6565ZM40.8576 34.3663C39.239 34.3663 37.8229 34.0965 36.6081 33.5569C35.3944 32.9905 34.4504 32.2214 33.7758 31.2502C33.1282 30.2521 32.8047 29.1324 32.8047 27.8914C32.8047 26.6773 33.0879 25.5848 33.6539 24.6133C34.2478 23.6423 35.2055 22.8734 36.5276 22.3067C37.8496 21.7403 39.6027 21.4569 41.7884 21.4569H48.0614V24.8157H42.1529C40.4259 24.8157 39.2659 25.099 38.6719 25.6656C38.079 26.2052 37.7826 26.8797 37.7826 27.6891C37.7826 28.6062 38.1463 29.3348 38.8745 29.8742C39.6027 30.4139 40.615 30.6836 41.9102 30.6836C43.1509 30.6836 44.2571 30.4005 45.2281 29.8339C46.227 29.2672 46.9417 28.4309 47.3735 27.3247L48.2227 30.36C47.7371 31.628 46.8602 32.6127 45.5927 33.3142C44.3512 34.0157 42.7729 34.3663 40.8576 34.3663Z" fill="#1B1919"/>
<path d="M63.5783 34.3663C61.7706 34.3663 60.031 34.137 58.3577 33.6784C56.7122 33.1928 55.4035 32.6127 54.4326 31.9382L56.3755 28.0938C57.3465 28.7143 58.5065 29.2269 59.8556 29.6314C61.2044 30.0363 62.5535 30.2386 63.9025 30.2386C65.4943 30.2386 66.641 30.0228 67.3423 29.5911C68.0705 29.1595 68.4342 28.5793 68.4342 27.8509C68.4342 27.2573 68.1915 26.8123 67.706 26.5155C67.2204 26.1918 66.5863 25.9489 65.8043 25.7871C65.0222 25.6253 64.1454 25.4767 63.1734 25.3419C62.2293 25.2069 61.2716 25.0317 60.3008 24.8157C59.3566 24.573 58.4931 24.2357 57.7102 23.8041C56.9282 23.3455 56.2939 22.7384 55.8084 21.983C55.3229 21.2275 55.0802 20.2294 55.0802 18.9884C55.0802 17.6125 55.4716 16.4254 56.2536 15.4271C57.0365 14.4019 58.1285 13.6196 59.5311 13.08C60.9617 12.5134 62.6476 12.2302 64.5904 12.2302C66.047 12.2302 67.5169 12.3921 69.0012 12.7158C70.4846 13.0394 71.7128 13.4981 72.6837 14.0917L70.7417 17.9362C69.716 17.3157 68.6779 16.8975 67.6253 16.6817C66.5998 16.4389 65.5749 16.3175 64.5494 16.3175C63.0121 16.3175 61.8656 16.5468 61.1096 17.0054C60.3812 17.4641 60.0176 18.0442 60.0176 18.7456C60.0176 19.3931 60.2604 19.8786 60.7459 20.2023C61.2313 20.5262 61.8656 20.7825 62.6476 20.9714C63.4304 21.1601 64.2931 21.322 65.2373 21.4569C66.2092 21.5648 67.1667 21.7403 68.1108 21.983C69.055 22.2258 69.9185 22.5631 70.7005 22.9947C71.5103 23.3994 72.1578 23.9794 72.6434 24.7349C73.1289 25.4903 73.3717 26.475 73.3717 27.6891C73.3717 29.038 72.9669 30.2116 72.1578 31.2099C71.375 32.208 70.2553 32.9905 68.7987 33.5569C67.3423 34.0965 65.6018 34.3663 63.5783 34.3663Z" fill="#1B1919"/>
<path d="M84.5168 34.3663C82.7102 34.3663 80.9697 34.137 79.2973 33.6784C77.6509 33.1928 76.343 32.6127 75.3711 31.9382L77.3141 28.0938C78.285 28.7143 79.445 29.2269 80.794 29.6314C82.1431 30.0363 83.4921 30.2386 84.8412 30.2386C86.4329 30.2386 87.5794 30.0228 88.2809 29.5911C89.0092 29.1595 89.3737 28.5793 89.3737 27.8509C89.3737 27.2573 89.131 26.8123 88.6455 26.5155C88.1591 26.1918 87.5257 25.9489 86.7428 25.7871C85.9608 25.6253 85.0839 25.4767 84.1128 25.3419C83.1688 25.2069 82.2103 25.0317 81.2392 24.8157C80.2951 24.573 79.4317 24.2357 78.6495 23.8041C77.8667 23.3455 77.2335 22.7384 76.747 21.983C76.2615 21.2275 76.0188 20.2294 76.0188 18.9884C76.0188 17.6125 76.4103 16.4254 77.1922 15.4271C77.9751 14.4019 79.0679 13.6196 80.4707 13.08C81.9004 12.5134 83.5862 12.2302 85.5291 12.2302C86.9857 12.2302 88.4564 12.3921 89.9399 12.7158C91.4241 13.0394 92.6513 13.4981 93.6223 14.0917L91.6802 17.9362C90.6547 17.3157 89.6164 16.8975 88.564 16.6817C87.5391 16.4389 86.5136 16.3175 85.4887 16.3175C83.9508 16.3175 82.8042 16.5468 82.049 17.0054C81.3199 17.4641 80.9562 18.0442 80.9562 18.7456C80.9562 19.3931 81.1989 19.8786 81.6844 20.2023C82.17 20.5262 82.8043 20.7825 83.5862 20.9714C84.3691 21.1601 85.2326 21.322 86.1768 21.4569C87.1477 21.5648 88.1053 21.7403 89.0495 21.983C89.9935 22.2258 90.857 22.5631 91.6401 22.9947C92.4489 23.3994 93.0965 23.9794 93.582 24.7349C94.0675 25.4903 94.3102 26.475 94.3102 27.6891C94.3102 29.038 93.9062 30.2116 93.0965 31.2099C92.3145 32.208 91.1949 32.9905 89.7374 33.5569C88.281 34.0965 86.5405 34.3663 84.5168 34.3663Z" fill="#1B1919"/>
<path d="M105.456 34.3663C103.649 34.3663 101.908 34.137 100.236 33.6784C98.5902 33.1928 97.2814 32.6127 96.3105 31.9382L98.2525 28.0938C99.2236 28.7143 100.384 29.2269 101.733 29.6314C103.082 30.0363 104.431 30.2386 105.78 30.2386C107.372 30.2386 108.518 30.0228 109.218 29.5911C109.947 29.1595 110.312 28.5793 110.312 27.8509C110.312 27.2573 110.069 26.8123 109.585 26.5155C109.098 26.1918 108.465 25.9489 107.681 25.7871C106.9 25.6253 106.022 25.4767 105.051 25.3419C104.107 25.2069 103.15 25.0317 102.178 24.8157C101.234 24.573 100.37 24.2357 99.5881 23.8041C98.8061 23.3455 98.1718 22.7384 97.6863 21.983C97.201 21.2275 96.9572 20.2294 96.9572 18.9884C96.9572 17.6125 97.3486 16.4254 98.1315 15.4271C98.9135 14.4019 100.006 13.6196 101.409 13.08C102.839 12.5134 104.526 12.2302 106.468 12.2302C107.925 12.2302 109.395 12.3921 110.878 12.7158C112.363 13.0394 113.589 13.4981 114.562 14.0917L112.618 17.9362C111.594 17.3157 110.556 16.8975 109.503 16.6817C108.477 16.4389 107.451 16.3175 106.427 16.3175C104.889 16.3175 103.743 16.5468 102.988 17.0054C102.259 17.4641 101.895 18.0442 101.895 18.7456C101.895 19.3931 102.137 19.8786 102.623 20.2023C103.108 20.5262 103.743 20.7825 104.526 20.9714C105.308 21.1601 106.171 21.322 107.115 21.4569C108.086 21.5648 109.043 21.7403 109.99 21.983C110.932 22.2258 111.796 22.5631 112.579 22.9947C113.387 23.3994 114.035 23.9794 114.521 24.7349C115.008 25.4903 115.25 26.475 115.25 27.6891C115.25 29.038 114.845 30.2116 114.035 31.2099C113.253 32.208 112.133 32.9905 110.676 33.5569C109.218 34.0965 107.48 34.3663 105.456 34.3663Z" fill="#1B1919"/>
<path d="M129.188 34.3663C126.787 34.3663 124.682 33.8942 122.875 32.95C121.095 31.9786 119.705 30.6568 118.706 28.984C117.735 27.3114 117.25 25.4093 117.25 23.2781C117.25 21.1196 117.722 19.2176 118.667 17.572C119.638 15.8994 120.959 14.5909 122.632 13.6465C124.332 12.7023 126.26 12.2302 128.42 12.2302C130.523 12.2302 132.398 12.6889 134.045 13.6062C135.69 14.5233 136.984 15.8184 137.929 17.491C138.873 19.1637 139.346 21.1332 139.346 23.3994C139.346 23.6152 139.332 23.8581 139.305 24.1278C139.305 24.3975 139.291 24.6538 139.264 24.8967H121.256V21.5379H136.593L134.611 22.59C134.637 21.349 134.381 20.2563 133.843 19.3121C133.302 18.3679 132.561 17.6259 131.616 17.0864C130.698 16.5468 129.633 16.277 128.42 16.277C127.178 16.277 126.085 16.5468 125.141 17.0864C124.224 17.6259 123.496 18.3814 122.956 19.3526C122.443 20.2968 122.187 21.4164 122.187 22.7114V23.5208C122.187 24.8157 122.484 25.9624 123.076 26.9605C123.671 27.9588 124.507 28.7277 125.586 29.2672C126.665 29.8069 127.907 30.0766 129.31 30.0766C130.523 30.0766 131.616 29.8879 132.587 29.51C133.558 29.1324 134.421 28.539 135.177 27.7296L137.888 30.8457C136.917 31.9786 135.69 32.8555 134.206 33.476C132.75 34.0695 131.077 34.3663 129.188 34.3663Z" fill="#1B1919"/>
<path d="M151.99 34.3662C149.993 34.3662 148.037 34.083 146.121 33.5165C144.232 32.9229 142.642 32.1136 141.346 31.0883L143.613 27.0009C144.637 27.8374 145.879 28.5118 147.335 29.0244C148.792 29.537 150.317 29.7933 151.909 29.7933C153.798 29.7933 155.268 29.4155 156.32 28.6602C157.371 27.8779 157.898 26.8257 157.898 25.5037C157.898 24.2087 157.413 23.1835 156.441 22.4281C155.469 21.6726 153.904 21.295 151.746 21.295H149.157V17.6932L157.251 8.06182L157.939 10.0448H142.722V5.63379H162.026V9.15458L153.932 18.786L151.18 17.1672H152.758C156.239 17.1672 158.843 17.9497 160.569 19.5144C162.322 21.0522 163.199 23.0351 163.199 25.4632C163.199 27.0551 162.794 28.5253 161.986 29.8742C161.176 31.2232 159.936 32.3158 158.262 33.1523C156.616 33.9617 154.525 34.3662 151.99 34.3662Z" fill="#1B1919"/>
</svg>
