<svg width="40" height="40" viewBox="0 0 40 40" fill="none" xmlns="http://www.w3.org/2000/svg">
<rect width="40" height="40" rx="4.44444" fill="white"/>
<path d="M13.7686 7H27.81V13.5168H13.7686V7Z" fill="#1B1919"/>
<path d="M13.7686 26.4834H27.81V33.0002H13.7686V26.4834Z" fill="#1B1919"/>
<path d="M33.9573 13.5072C33.9573 17.0915 31.0517 19.9972 27.4675 19.9972C23.8831 19.9972 20.9775 17.0915 20.9775 13.5072C20.9775 9.92297 23.8831 7.01733 27.4675 7.01733C31.0517 7.01733 33.9573 9.92297 33.9573 13.5072Z" fill="#1B1919"/>
<path d="M33.9573 26.4868C33.9573 30.0711 31.0517 32.9767 27.4675 32.9767C23.8831 32.9767 20.9775 30.0711 20.9775 26.4868C20.9775 22.9025 23.8831 19.9968 27.4675 19.9968C31.0517 19.9968 33.9573 22.9025 33.9573 26.4868Z" fill="#1B1919"/>
<path d="M6.04199 7H14.5071V7.01735C18.0826 7.02777 20.9778 9.92939 20.9778 13.5072C20.9778 17.0796 18.0914 19.9778 14.5236 19.9971C18.0914 20.0163 20.9778 22.9145 20.9778 26.4868C20.9778 30.0647 18.0826 32.9664 14.5071 32.9768V33.0002H6.04199V32.9768C9.61388 32.9622 12.505 30.0622 12.505 26.4868C12.505 22.9144 9.61858 20.0162 6.05069 19.9971C9.61858 19.9779 12.505 17.0797 12.505 13.5072C12.505 9.93194 9.61388 7.03189 6.04199 7.01738V7Z" fill="#1B1919"/>
</svg>
