<svg width="72" height="72" viewBox="0 0 72 72" fill="none" xmlns="http://www.w3.org/2000/svg">
<rect width="72" height="72" rx="8" fill="#363636"/>
<path d="M22.6055 8.05841H52.7852V22.0652H22.6055V8.05841Z" fill="white"/>
<path d="M22.6055 49.9349H52.7852V63.9415H22.6055V49.9349Z" fill="white"/>
<path d="M65.9998 22.0445C65.9998 29.7482 59.7547 35.9934 52.051 35.9934C44.3471 35.9934 38.1021 29.7482 38.1021 22.0445C38.1021 14.3407 44.3471 8.09552 52.051 8.09552C59.7547 8.09552 65.9998 14.3407 65.9998 22.0445Z" fill="white"/>
<path d="M65.9998 49.9424C65.9998 57.6461 59.7547 63.8912 52.051 63.8912C44.3471 63.8912 38.1021 57.6461 38.1021 49.9424C38.1021 42.2385 44.3471 35.9933 52.051 35.9933C59.7547 35.9933 65.9998 42.2385 65.9998 49.9424Z" fill="white"/>
<path d="M5.99951 8.05841H24.1939V8.0957C31.8787 8.1181 38.1014 14.3546 38.1014 22.0446C38.1014 29.7227 31.8976 35.952 24.2292 35.9934C31.8976 36.0346 38.1014 42.2639 38.1014 49.942C38.1014 57.6319 31.8787 63.8685 24.1939 63.8909V63.9413H5.99951V63.8909C13.6767 63.8596 19.8905 57.6265 19.8905 49.942C19.8905 42.2637 13.6868 36.0345 6.01822 35.9934C13.6868 35.9521 19.8905 29.7229 19.8905 22.0446C19.8905 14.3601 13.6767 8.12695 5.99951 8.09576V8.05841Z" fill="white"/>
</svg>
