<svg width="393" height="63" viewBox="0 0 393 63" fill="none" xmlns="http://www.w3.org/2000/svg">
<g clip-path="url(#clip0_1103_3158)">
<path d="M39.0044 62.0726H0V-0.00088501H37.2441C49.9368 -0.00088501 56.7926 5.37264 56.7926 15.1006C56.7926 22.7903 52.7162 28.3491 42.3397 29.0903V29.9241C53.8279 30.7579 59.3868 36.502 59.3868 44.8403C59.3868 55.402 52.9015 62.0726 39.0044 62.0726ZM13.8971 12.5065V24.6432H35.6691C40.7647 24.6432 42.8956 22.8829 42.8956 18.6212C42.8956 14.3594 40.6721 12.5065 35.4838 12.5065H13.8971ZM13.8971 36.1315V49.5653H37.3368C42.9882 49.5653 45.3044 47.805 45.3044 42.802C45.3044 37.8918 42.9882 36.1315 37.3368 36.1315H13.8971Z" fill="white"/>
<path d="M78.4127 62.0726H64.5156V-0.00088501H78.4127V62.0726Z" fill="white"/>
<path d="M104.865 62.9991C91.8017 62.9991 85.5943 54.9388 85.5943 44.5623V15.6565H99.4914V39.93C99.4914 47.4344 102.641 50.5844 111.443 50.5844C120.522 50.5844 123.765 47.0638 123.765 39.1888V15.6565H137.662V62.0726H124.691V47.8976H123.95C122.746 55.68 117.094 62.9991 104.865 62.9991Z" fill="white"/>
<path d="M169.412 62.9991C153.94 62.9991 143.378 55.4021 143.378 38.9109C143.378 24.0873 153.847 14.73 169.134 14.73C184.328 14.73 194.426 22.6976 194.426 37.2432C194.426 38.9109 194.241 40.1153 194.056 41.6903H156.256C156.626 48.8241 159.962 51.8815 168.948 51.8815C177.194 51.8815 180.066 49.7506 180.066 45.7668V44.8403H193.963V45.8594C193.963 55.9579 184.143 62.9991 169.412 62.9991ZM168.856 25.5697C160.61 25.5697 157.09 28.3491 156.441 34.3712H181.085C180.715 28.2565 177.009 25.5697 168.856 25.5697Z" fill="white"/>
<path d="M233.024 62.0726H221.536C210.696 62.0726 204.118 56.9771 204.118 45.3035V27.1447V15.6565V-0.00088501H218.015V15.6565V27.1447V43.7285C218.015 48.3609 219.775 49.5653 224.686 49.5653H233.024V62.0726Z" fill="#A0A0A0"/>
<path d="M252.126 62.0726H238.229V15.6565H252.126V62.0726Z" fill="#A0A0A0"/>
<path d="M280.153 62.9991C265.7 62.9991 257.733 53.5491 257.733 38.9109C257.733 24.0873 265.608 14.73 279.412 14.73C290.437 14.73 296.088 20.1962 297.663 27.9785H298.497V-0.00088501H312.394V62.0726H299.424V49.1947H298.683C296.922 58.3668 290.808 62.9991 280.153 62.9991ZM271.815 38.9109C271.815 47.3418 275.984 50.3065 284.878 50.3065C293.68 50.3065 298.497 47.2491 298.497 39.1888V38.4476C298.497 30.3873 293.772 27.4226 284.878 27.4226C275.984 27.4226 271.815 30.3873 271.815 38.9109Z" fill="#A0A0A0"/>
<path d="M344.392 62.9991C328.919 62.9991 318.358 55.4021 318.358 38.9109C318.358 24.0873 328.827 14.73 344.114 14.73C359.308 14.73 369.406 22.6976 369.406 37.2432C369.406 38.9109 369.221 40.1153 369.036 41.6903H331.236C331.606 48.8241 334.942 51.8815 343.928 51.8815C352.174 51.8815 355.046 49.7506 355.046 45.7668V44.8403H368.943V45.8594C368.943 55.9579 359.122 62.9991 344.392 62.9991ZM343.836 25.5697C335.59 25.5697 332.069 28.3491 331.421 34.3712H356.065C355.695 28.2565 351.989 25.5697 343.836 25.5697Z" fill="#A0A0A0"/>
<path d="M392.254 62.0726H374.373V45.8594H392.254V62.0726Z" fill="#A0A0A0"/>
<path d="M195.805 22.9357C228.39 24.5329 220.769 2.62305 252.703 6.6204" stroke="#A0A0A0" stroke-width="12.8676"/>
</g>
<defs>
<clipPath id="clip0_1103_3158">
<rect width="392.254" height="63" fill="white"/>
</clipPath>
</defs>
</svg>
