<svg width="206" height="40" viewBox="0 0 206 40" fill="none" xmlns="http://www.w3.org/2000/svg">
<path d="M23.8873 35.6494H4V3.99976H22.9898C29.4615 3.99976 32.9571 6.73958 32.9571 11.6996C32.9571 15.6204 30.8786 18.4547 25.5879 18.8326V19.2577C31.4455 19.6829 34.2798 22.6116 34.2798 26.8631C34.2798 32.2483 30.9731 35.6494 23.8873 35.6494ZM11.0857 10.3769V16.5651H22.1868C24.7849 16.5651 25.8713 15.6676 25.8713 13.4947C25.8713 11.3217 24.7376 10.3769 22.0923 10.3769H11.0857ZM11.0857 22.4227V29.2723H23.037C25.9186 29.2723 27.0995 28.3747 27.0995 25.8239C27.0995 23.3202 25.9186 22.4227 23.037 22.4227H11.0857Z" fill="white"/>
<path d="M43.9806 35.6494H36.8948V3.99976H43.9806V35.6494Z" fill="white"/>
<path d="M57.4679 36.1218C50.8073 36.1218 47.6423 32.0121 47.6423 26.7214V11.983H54.728V24.3595C54.728 28.1858 56.3341 29.7919 60.8218 29.7919C65.4511 29.7919 67.1045 27.9968 67.1045 23.9816V11.983H74.1902V35.6494H67.5769V28.422H67.199C66.5849 32.39 63.7033 36.1218 57.4679 36.1218Z" fill="white"/>
<path d="M90.3786 36.1218C82.4898 36.1218 77.1046 32.2483 77.1046 23.8398C77.1046 16.2817 82.4425 11.5106 90.2369 11.5106C97.9839 11.5106 103.133 15.5731 103.133 22.9896C103.133 23.8398 103.038 24.4539 102.944 25.257H83.6707C83.8597 28.8943 85.5603 30.4532 90.1424 30.4532C94.3466 30.4532 95.811 29.3667 95.811 27.3355V26.8631H102.897V27.3827C102.897 32.5317 97.8895 36.1218 90.3786 36.1218ZM90.0952 17.0375C85.8909 17.0375 84.0959 18.4547 83.7652 21.5252H96.3306C96.1417 18.4074 94.2521 17.0375 90.0952 17.0375Z" fill="white"/>
<path d="M122.813 35.6494H116.955C111.428 35.6494 108.074 33.0513 108.074 27.0993V17.8406V11.983V3.99976H115.16V11.983V17.8406V26.2962C115.16 28.6582 116.058 29.2723 118.561 29.2723H122.813V35.6494Z" fill="#BDBDBD"/>
<path d="M132.552 35.6494H125.467V11.983H132.552V35.6494Z" fill="#BDBDBD"/>
<path d="M146.843 36.1218C139.474 36.1218 135.411 31.3035 135.411 23.8398C135.411 16.2817 139.426 11.5106 146.465 11.5106C152.086 11.5106 154.968 14.2977 155.771 18.2657H156.196V3.99976H163.282V35.6494H156.668V29.0833H156.29C155.393 33.7599 152.275 36.1218 146.843 36.1218ZM142.591 23.8398C142.591 28.1385 144.717 29.6502 149.252 29.6502C153.74 29.6502 156.196 28.0913 156.196 23.9816V23.6037C156.196 19.4939 153.787 17.9823 149.252 17.9823C144.717 17.9823 142.591 19.4939 142.591 23.8398Z" fill="#BDBDBD"/>
<path d="M179.596 36.1218C171.707 36.1218 166.322 32.2483 166.322 23.8398C166.322 16.2817 171.66 11.5106 179.455 11.5106C187.202 11.5106 192.351 15.5731 192.351 22.9896C192.351 23.8398 192.256 24.4539 192.162 25.257H172.888C173.077 28.8943 174.778 30.4532 179.36 30.4532C183.564 30.4532 185.029 29.3667 185.029 27.3355V26.8631H192.114V27.3827C192.114 32.5317 187.107 36.1218 179.596 36.1218ZM179.313 17.0375C175.109 17.0375 173.314 18.4547 172.983 21.5252H185.548C185.359 18.4074 183.47 17.0375 179.313 17.0375Z" fill="#BDBDBD"/>
<path d="M204 35.6494H194.883V27.3827H204V35.6494Z" fill="#BDBDBD"/>
<path d="M103.837 15.6948C120.451 16.5091 116.565 5.33787 132.847 7.37602" stroke="#BDBDBD" stroke-width="6.56088"/>
</svg>
