<svg width="110" height="40" viewBox="0 0 110 40" fill="none" xmlns="http://www.w3.org/2000/svg">
<path d="M10.4468 31.5C10.2298 31.5 10.0453 31.424 9.89342 31.2721C9.74151 31.1202 9.66555 30.9358 9.66555 30.7187V9.52714C9.66555 9.28842 9.74151 9.0931 9.89342 8.94119C10.0453 8.78928 10.2298 8.71332 10.4468 8.71332H18.8779C21.5038 8.71332 23.5763 9.32097 25.0954 10.5363C26.6145 11.7515 27.3741 13.5202 27.3741 15.8423C27.3741 17.4482 26.9726 18.7829 26.1696 19.8462C25.3884 20.9096 24.3358 21.68 23.012 22.1575L27.7647 30.4583C27.8298 30.5885 27.8623 30.7079 27.8623 30.8164C27.8623 31.0117 27.7864 31.1745 27.6345 31.3047C27.5043 31.4349 27.3524 31.5 27.1787 31.5H24.2165C23.8475 31.5 23.5654 31.4023 23.3701 31.207C23.1748 31.0117 23.0229 30.8164 22.9144 30.6211L18.7151 22.9062H14.1903V30.7187C14.1903 30.9358 14.1144 31.1202 13.9625 31.2721C13.8323 31.424 13.6478 31.5 13.4091 31.5H10.4468ZM14.1903 19.2277H18.7802C20.104 19.2277 21.0914 18.9348 21.7425 18.3488C22.3935 17.7412 22.7191 16.8948 22.7191 15.8097C22.7191 14.7247 22.3935 13.8783 21.7425 13.2707C21.1131 12.6413 20.1257 12.3266 18.7802 12.3266H14.1903V19.2277ZM31.3081 31.5C31.091 31.5 30.9066 31.424 30.7547 31.2721C30.6028 31.1202 30.5268 30.9358 30.5268 30.7187V15.354C30.5268 15.137 30.6028 14.9525 30.7547 14.8006C30.9066 14.6487 31.091 14.5728 31.3081 14.5728H34.0099C34.2486 14.5728 34.4331 14.6487 34.5633 14.8006C34.7152 14.9525 34.7912 15.137 34.7912 15.354V30.7187C34.7912 30.9358 34.7152 31.1202 34.5633 31.2721C34.4331 31.424 34.2486 31.5 34.0099 31.5H31.3081ZM31.1778 11.7733C30.9391 11.7733 30.7438 11.7081 30.5919 11.5779C30.4617 11.426 30.3966 11.2307 30.3966 10.992V8.64822C30.3966 8.43121 30.4617 8.24674 30.5919 8.09483C30.7438 7.94292 30.9391 7.86696 31.1778 7.86696H34.1401C34.3788 7.86696 34.5741 7.94292 34.7261 8.09483C34.878 8.24674 34.9539 8.43121 34.9539 8.64822V10.992C34.9539 11.2307 34.878 11.426 34.7261 11.5779C34.5741 11.7081 34.3788 11.7733 34.1401 11.7733H31.1778ZM44.7415 31.8255C43.613 31.8255 42.6148 31.6411 41.7467 31.2721C40.9003 30.8815 40.195 30.339 39.6308 29.6445C39.0665 28.9501 38.6325 28.1363 38.3287 27.2031C38.0249 26.2482 37.8513 25.2065 37.8079 24.0781C37.7862 23.6874 37.7753 23.3402 37.7753 23.0364C37.7753 22.7109 37.7862 22.3528 37.8079 21.9621C37.8513 20.8771 38.014 19.8679 38.2961 18.9348C38.6 18.0016 39.034 17.1878 39.5982 16.4933C40.1842 15.7772 40.9003 15.2238 41.7467 14.8332C42.6148 14.4425 43.613 14.2472 44.7415 14.2472C45.9134 14.2472 46.9008 14.4534 47.7038 14.8657C48.5284 15.2564 49.212 15.7663 49.7546 16.3957V9.16906C49.7546 8.95204 49.8197 8.76758 49.9499 8.61567C50.1018 8.46376 50.2971 8.3878 50.5358 8.3878H53.3028C53.5198 8.3878 53.7043 8.46376 53.8562 8.61567C54.0081 8.76758 54.0841 8.95204 54.0841 9.16906V30.7187C54.0841 30.9358 54.0081 31.1202 53.8562 31.2721C53.7043 31.424 53.5198 31.5 53.3028 31.5H50.7312C50.4924 31.5 50.2971 31.424 50.1452 31.2721C50.015 31.1202 49.9499 30.9358 49.9499 30.7187V29.5143C49.4074 30.1871 48.7129 30.7404 47.8665 31.1745C47.0419 31.6085 46.0002 31.8255 44.7415 31.8255ZM45.946 28.3424C46.8574 28.3424 47.5844 28.1363 48.127 27.7239C48.6695 27.3116 49.071 26.7908 49.3314 26.1614C49.5918 25.5104 49.7329 24.8485 49.7546 24.1757C49.7763 23.7851 49.7871 23.3728 49.7871 22.9387C49.7871 22.483 49.7763 22.0598 49.7546 21.6692C49.7329 21.0181 49.581 20.3996 49.2989 19.8137C49.0167 19.206 48.6044 18.7069 48.0619 18.3163C47.5193 17.9257 46.814 17.7303 45.946 17.7303C45.0345 17.7303 44.3075 17.9365 43.7649 18.3488C43.2441 18.7395 42.8643 19.2603 42.6256 19.9113C42.3869 20.5624 42.2458 21.2785 42.2024 22.0598C42.1807 22.7109 42.1807 23.3619 42.2024 24.0129C42.2458 24.7942 42.3869 25.5104 42.6256 26.1614C42.8643 26.8125 43.2441 27.3441 43.7649 27.7565C44.3075 28.1471 45.0345 28.3424 45.946 28.3424ZM65.4214 38.6615C63.8372 38.6615 62.5351 38.4554 61.5152 38.043C60.4952 37.6307 59.6922 37.1316 59.1063 36.5456C58.5203 35.9597 58.0972 35.3737 57.8367 34.7878C57.598 34.2236 57.4678 33.7787 57.4461 33.4531C57.4244 33.2361 57.4895 33.0408 57.6414 32.8672C57.815 32.7153 58.0103 32.6393 58.2274 32.6393H61.0594C61.2764 32.6393 61.45 32.6827 61.5803 32.7695C61.7105 32.8781 61.819 33.0625 61.9058 33.3229C62.036 33.6051 62.2096 33.9089 62.4266 34.2344C62.6436 34.5599 62.9692 34.8312 63.4032 35.0482C63.8589 35.2869 64.4774 35.4063 65.2587 35.4063C66.0833 35.4063 66.7778 35.2869 67.342 35.0482C67.9063 34.8095 68.3295 34.408 68.6116 33.8438C68.9154 33.2795 69.0673 32.4983 69.0673 31.5V29.2864C68.5465 29.9158 67.8737 30.4258 67.0491 30.8164C66.2461 31.207 65.2478 31.4023 64.0542 31.4023C62.8824 31.4023 61.8732 31.2179 61.0269 30.849C60.1805 30.4583 59.4752 29.9266 58.911 29.2539C58.3467 28.5594 57.9127 27.7456 57.6089 26.8125C57.3267 25.8793 57.164 24.8485 57.1206 23.72C57.0989 23.134 57.0989 22.5481 57.1206 21.9621C57.164 20.8771 57.3267 19.8679 57.6089 18.9348C57.891 18.0016 58.3142 17.1878 58.8784 16.4933C59.4644 15.7772 60.1805 15.2238 61.0269 14.8332C61.8732 14.4425 62.8824 14.2472 64.0542 14.2472C65.2912 14.2472 66.3329 14.4859 67.1793 14.9634C68.0256 15.4191 68.7201 15.9942 69.2626 16.6887V15.3866C69.2626 15.1478 69.3386 14.9525 69.4905 14.8006C69.6424 14.6487 69.8269 14.5728 70.0439 14.5728H72.6806C72.8976 14.5728 73.0821 14.6487 73.234 14.8006C73.3859 14.9525 73.4619 15.1478 73.4619 15.3866L73.4944 31.0768C73.4944 32.6393 73.2015 33.9848 72.6155 35.1133C72.0296 36.2418 71.1398 37.1099 69.9462 37.7175C68.7743 38.3469 67.2661 38.6615 65.4214 38.6615ZM65.2587 27.9518C66.1484 27.9518 66.8646 27.7565 67.4071 27.3658C67.9497 26.9752 68.3512 26.4652 68.6116 25.8359C68.872 25.2065 69.0239 24.5663 69.0673 23.9153C69.089 23.6332 69.0999 23.2751 69.0999 22.8411C69.0999 22.407 69.089 22.0598 69.0673 21.7994C69.0239 21.1266 68.872 20.4864 68.6116 19.8788C68.3512 19.2494 67.9497 18.7395 67.4071 18.3488C66.8646 17.9365 66.1484 17.7303 65.2587 17.7303C64.3689 17.7303 63.6528 17.9365 63.1102 18.3488C62.5677 18.7395 62.1771 19.2603 61.9383 19.9113C61.7213 20.5624 61.5911 21.2785 61.5477 22.0598C61.5043 22.5806 61.5043 23.1123 61.5477 23.6549C61.5911 24.4144 61.7213 25.1306 61.9383 25.8033C62.1771 26.4544 62.5677 26.9752 63.1102 27.3658C63.6528 27.7565 64.3689 27.9518 65.2587 27.9518ZM77.9935 31.5C77.7765 31.5 77.5921 31.424 77.4401 31.2721C77.2882 31.1202 77.2123 30.9358 77.2123 30.7187V9.16906C77.2123 8.95204 77.2882 8.76758 77.4401 8.61567C77.5921 8.46376 77.7765 8.3878 77.9935 8.3878H80.6954C80.9124 8.3878 81.0969 8.46376 81.2488 8.61567C81.4007 8.76758 81.4766 8.95204 81.4766 9.16906V30.7187C81.4766 30.9358 81.4007 31.1202 81.2488 31.2721C81.0969 31.424 80.9124 31.5 80.6954 31.5H77.9935ZM92.4353 31.8255C90.0265 31.8255 88.1167 31.1311 86.7061 29.7422C85.2955 28.3533 84.536 26.3784 84.4275 23.8176C84.4058 23.6006 84.3949 23.3293 84.3949 23.0038C84.3949 22.6566 84.4058 22.3853 84.4275 22.19C84.5143 20.5624 84.8832 19.1518 85.5342 17.9582C86.207 16.7646 87.1293 15.8532 88.3012 15.2238C89.4731 14.5728 90.8511 14.2472 92.4353 14.2472C94.1932 14.2472 95.6689 14.6162 96.8625 15.354C98.0561 16.0702 98.9567 17.0793 99.5643 18.3814C100.172 19.6618 100.476 21.1483 100.476 22.8411V23.5247C100.476 23.7417 100.4 23.9261 100.248 24.0781C100.096 24.23 99.9007 24.3059 99.662 24.3059H88.8546C88.8546 24.3059 88.8546 24.3385 88.8546 24.4036C88.8546 24.4687 88.8546 24.5229 88.8546 24.5663C88.8763 25.3259 89.0173 26.0312 89.2778 26.6822C89.5599 27.3116 89.9614 27.8216 90.4822 28.2122C91.0247 28.6028 91.6649 28.7982 92.4028 28.7982C93.0104 28.7982 93.5204 28.7113 93.9328 28.5377C94.3451 28.3424 94.6815 28.1254 94.9419 27.8867C95.2023 27.648 95.3868 27.4527 95.4953 27.3007C95.6906 27.0403 95.8425 26.8884 95.951 26.845C96.0812 26.7799 96.2657 26.7474 96.5044 26.7474H99.3039C99.5209 26.7474 99.6945 26.8125 99.8247 26.9427C99.9767 27.0729 100.042 27.2356 100.02 27.431C99.9984 27.7782 99.8139 28.2014 99.4667 28.7005C99.1411 29.1996 98.6637 29.6879 98.0344 30.1654C97.405 30.6428 96.6129 31.0443 95.658 31.3698C94.7249 31.6736 93.6506 31.8255 92.4353 31.8255ZM88.8546 21.5715H96.0487V21.4739C96.0487 20.6275 95.9076 19.8896 95.6255 19.2603C95.3434 18.631 94.931 18.1318 94.3885 17.7629C93.846 17.394 93.1949 17.2095 92.4353 17.2095C91.6758 17.2095 91.0247 17.394 90.4822 17.7629C89.9397 18.1318 89.5273 18.631 89.2452 19.2603C88.9848 19.8896 88.8546 20.6275 88.8546 21.4739V21.5715Z" fill="white"/>
</svg>
