<svg width="40" height="40" viewBox="0 0 40 40" fill="none" xmlns="http://www.w3.org/2000/svg">
<path fill-rule="evenodd" clip-rule="evenodd" d="M14.254 8.94995C13.7957 8.9501 13.3456 9.07138 12.9493 9.3015C12.553 9.53162 12.2245 9.86241 11.9972 10.2604L7.3432 18.4049C7.11833 18.7979 7.00003 19.2429 7 19.6958V25.5432C7.00003 25.9466 7.09394 26.3445 7.2743 26.7054L8.7277 29.6122C8.94357 30.0442 9.27551 30.4075 9.68629 30.6615C10.0971 30.9154 10.5705 31.0499 11.0534 31.05H12.2C12.8896 31.05 13.5509 30.776 14.0385 30.2884V30.2884C14.8359 29.491 15.7142 28.45 16.842 28.45H23.158C24.2858 28.45 25.1641 29.491 25.9615 30.2884V30.2884C26.4491 30.776 27.1104 31.05 27.8 31.05H28.9466C29.4295 31.0499 29.9029 30.9154 30.3137 30.6615C30.7245 30.4075 31.0564 30.0442 31.2723 29.6122L32.7257 26.7054C32.9064 26.3453 33 25.9462 33 25.5432V19.6958C33 19.2429 32.8817 18.7979 32.6568 18.4049L28.0028 10.2604C27.7755 9.86241 27.447 9.53162 27.0507 9.3015C26.6544 9.07138 26.2043 8.9501 25.746 8.94995H14.254ZM20 19.35C17.9239 19.35 16.0064 18.9041 14.0811 18.1865C13.7725 18.0323 13.4154 18.0071 13.0882 18.1163C12.761 18.2256 12.4906 18.4603 12.3365 18.7689C12.1824 19.0774 12.1572 19.4346 12.2664 19.7618C12.3756 20.0889 12.6103 20.3593 12.9189 20.5135C13.5611 20.832 16.828 21.95 20 21.95C22.4102 21.95 24.8984 21.5938 27.0785 20.5148C27.3855 20.3586 27.6189 20.0881 27.7283 19.7615C27.8378 19.4349 27.8145 19.0784 27.6635 18.7689C27.5872 18.616 27.4816 18.4797 27.3526 18.3677C27.2237 18.2557 27.0739 18.1702 26.9119 18.1161C26.7499 18.062 26.5788 18.0404 26.4084 18.0525C26.238 18.0645 26.0717 18.1101 25.9189 18.1865C24.1444 19.0731 21.9448 19.35 20 19.35Z" fill="white"/>
</svg>
