<svg width="40" height="40" viewBox="0 0 40 40" fill="none" xmlns="http://www.w3.org/2000/svg">
<path fill-rule="evenodd" clip-rule="evenodd" d="M14.475 9.375C14.0343 9.37514 13.6015 9.49176 13.2205 9.71303C12.8394 9.9343 12.5236 10.2524 12.305 10.635L7.83 18.4663C7.61378 18.8442 7.50003 19.2721 7.5 19.7075V25.33C7.50003 25.7179 7.59032 26.1005 7.76375 26.4475L9.16125 29.2425C9.36882 29.6579 9.68799 30.0073 10.083 30.2514C10.4779 30.4956 10.9331 30.625 11.3975 30.625H12.5C13.163 30.625 13.7989 30.3616 14.2678 29.8928C15.0345 29.126 15.8791 28.125 16.9635 28.125H23.0365C24.1209 28.125 24.9655 29.126 25.7322 29.8928C26.2011 30.3616 26.837 30.625 27.5 30.625H28.6025C29.0669 30.625 29.5221 30.4956 29.917 30.2514C30.312 30.0073 30.6312 29.6579 30.8387 29.2425L32.2362 26.4475C32.41 26.1013 32.5 25.7175 32.5 25.33V19.7075C32.5 19.2721 32.3862 18.8442 32.17 18.4663L27.695 10.635C27.4764 10.2524 27.1606 9.9343 26.7795 9.71303C26.3985 9.49176 25.9657 9.37514 25.525 9.375H14.475ZM20 19.375C18.0037 19.375 16.16 18.9462 14.3087 18.2562C14.012 18.1081 13.6686 18.0838 13.354 18.1888C13.0394 18.2938 12.7794 18.5195 12.6312 18.8163C12.4831 19.113 12.4588 19.4564 12.5638 19.771C12.6688 20.0856 12.8945 20.3456 13.1912 20.4938C13.8087 20.8 16.95 21.875 20 21.875C22.3175 21.875 24.71 21.5325 26.8062 20.495C27.1015 20.3449 27.3259 20.0848 27.4311 19.7707C27.5363 19.4567 27.5139 19.1139 27.3687 18.8163C27.2954 18.6693 27.1939 18.5382 27.0699 18.4305C26.9458 18.3228 26.8018 18.2406 26.646 18.1886C26.4903 18.1366 26.3257 18.1158 26.1619 18.1274C25.9981 18.139 25.8382 18.1828 25.6912 18.2562C23.985 19.1087 21.87 19.375 20 19.375Z" fill="#191919"/>
</svg>
