<svg width="173" height="40" viewBox="0 0 173 40" fill="none" xmlns="http://www.w3.org/2000/svg">
<path d="M15.3895 5.52665C16.5723 4.62891 18.2593 4.86006 19.1572 6.04269L21.8186 9.54939C22.7164 10.7323 22.4855 12.4192 21.3026 13.3171L20.0569 14.2618L20.1096 14.2458C19.2087 14.9278 17.6934 16.8397 18.7772 19.0666L20.2815 21.0493C21.1792 22.2322 20.9483 23.9192 19.7654 24.817L16.2589 27.4774C15.076 28.3753 13.389 28.1443 12.4912 26.9614L9.83063 23.4558C8.93284 22.2729 9.16383 20.586 10.3467 19.6881L13.8524 17.0266C14.4712 16.5569 15.2278 16.399 15.9373 16.5218L15.9329 16.5113C15.2048 16.4465 14.5051 16.0896 14.0283 15.4614L11.3678 11.9559C10.4699 10.7729 10.7009 9.08601 11.8838 8.18819L15.3895 5.52665Z" fill="white"/>
<path d="M26.9871 12.5097C28.1699 11.612 29.8559 11.8429 30.7538 13.0256L33.4152 16.5323C34.3128 17.7151 34.0819 19.4011 32.8993 20.299L29.3926 22.9604C28.7747 23.4293 28.0201 23.5875 27.3116 23.4657L27.3217 23.4908C28.0389 23.5629 28.7259 23.9189 29.196 24.5383L31.8565 28.0449C32.7543 29.2278 32.5234 30.9147 31.3404 31.8126L27.8348 34.4731C26.6519 35.371 24.965 35.14 24.0672 33.9571L21.4056 30.4514C20.5079 29.2685 20.7389 27.5816 21.9217 26.6837L23.5256 25.4651C24.4084 24.6039 25.4502 22.8852 24.4737 20.9271L22.9645 18.9378C22.0668 17.7549 22.2977 16.0689 23.4804 15.1711L26.9871 12.5097Z" fill="white"/>
<path d="M55.7353 27.9677C55.3909 29.8222 54.4107 31.3191 52.7946 32.4582C51.2051 33.5709 49.2446 34.1273 46.9133 34.1273C44.5289 34.1273 42.6479 33.5842 41.2703 32.498C39.8927 31.3853 39.1509 29.862 39.0449 27.928L43.7341 27.2524C44.0256 29.2394 45.2707 30.2329 47.4696 30.2329C48.3704 30.2329 49.1254 30.0474 49.7347 29.6765C50.3706 29.3056 50.7415 28.8155 50.8474 28.2062C50.9534 27.5173 50.662 26.961 49.9732 26.5371C49.2844 26.0867 48.2379 25.7953 46.8338 25.6629C44.5819 25.4509 42.9261 24.8283 41.8664 23.7951C40.8067 22.7619 40.4225 21.4108 40.714 19.7417C41.0319 17.9667 41.9591 16.5626 43.4957 15.5294C45.0588 14.4962 47.0192 13.9796 49.3771 13.9796C53.9338 13.9796 56.4639 15.887 56.9672 19.702L52.1986 20.616C51.9071 18.788 50.7415 17.874 48.7015 17.874C47.8273 17.874 47.0987 18.0462 46.5159 18.3906C45.933 18.735 45.6019 19.1854 45.5224 19.7417C45.3899 20.3511 45.6151 20.8412 46.198 21.2121C46.8073 21.583 47.8008 21.8612 49.1784 22.0466C51.6952 22.3645 53.4835 23.0136 54.5432 23.9938C55.6294 24.9476 56.0268 26.2722 55.7353 27.9677Z" fill="white"/>
<path d="M61.1271 9.92619C61.2596 9.18439 61.6437 8.53532 62.2795 7.97897C62.9419 7.42263 63.6439 7.14445 64.3857 7.14445C65.154 7.14445 65.7633 7.42263 66.2137 7.97897C66.6641 8.53532 66.823 9.18439 66.6906 9.92619C66.5581 10.6945 66.1607 11.3568 65.4984 11.9131C64.8626 12.4695 64.1605 12.7477 63.3922 12.7477C62.6504 12.7477 62.0544 12.4695 61.604 11.9131C61.1536 11.3568 60.9946 10.6945 61.1271 9.92619ZM60.69 14.8936H65.4984L62.2795 33.1735H57.4711L60.69 14.8936Z" fill="white"/>
<path d="M68.7232 14.8936H73.015L71.4652 19.702L72.1407 19.861C72.7766 18.0595 73.6906 16.6421 74.8827 15.6089C76.1014 14.5757 77.4658 14.0591 78.9759 14.0591C80.3005 14.0591 81.3734 14.6419 82.1947 15.8076C83.0425 16.9468 83.3207 18.2846 83.0292 19.8212V20.0199L83.6651 20.1391C84.2744 18.2317 85.2149 16.7481 86.4865 15.6884C87.7582 14.6022 89.255 14.0591 90.9771 14.0591C92.7521 14.0591 94.0635 14.7744 94.9112 16.205C95.759 17.6356 95.9842 19.4371 95.5868 21.6095L93.5601 33.1735H88.7119L90.6989 22.0466C90.9108 20.8544 90.7784 19.9139 90.3015 19.2251C89.8246 18.5363 89.0298 18.1919 87.9171 18.1919C86.8839 18.1919 86.0097 18.5496 85.2944 19.2649C84.5791 19.9802 84.1154 20.9339 83.9035 22.1261L81.9563 33.1735H77.1081L79.0951 22.0466C79.307 20.8544 79.1878 19.9139 78.7374 19.2251C78.287 18.5363 77.5452 18.1919 76.512 18.1919C75.3993 18.1919 74.4588 18.5496 73.6906 19.2649C72.9488 19.9802 72.4719 20.9339 72.26 22.1261L70.3127 33.1735H65.5043L68.7232 14.8936Z" fill="white"/>
<path d="M102.741 23.9541C102.397 25.8351 102.503 27.2789 103.059 28.2856C103.642 29.2924 104.596 29.7957 105.92 29.7957C107.245 29.7957 108.371 29.2924 109.298 28.2856C110.226 27.2789 110.848 25.8351 111.166 23.9541C111.51 22.0996 111.391 20.669 110.808 19.6623C110.252 18.6555 109.298 18.1522 107.947 18.1522C106.623 18.1522 105.497 18.6555 104.569 19.6623C103.669 20.669 103.059 22.0996 102.741 23.9541ZM97.8932 23.9541C98.4495 20.8014 99.6947 18.3509 101.629 16.6024C103.563 14.8538 105.92 13.9796 108.702 13.9796C111.299 13.9796 113.299 14.8671 114.703 16.6421C116.133 18.4171 116.571 20.8544 116.014 23.9541C115.458 27.1332 114.199 29.6103 112.239 31.3853C110.305 33.1338 107.947 34.0081 105.165 34.0081C102.41 34.0081 100.37 33.1338 99.0456 31.3853C97.721 29.6103 97.3368 27.1332 97.8932 23.9541Z" fill="white"/>
<path d="M121.888 5.8728H126.697L121.888 33.1735H117.08L121.888 5.8728Z" fill="white"/>
<path d="M130.872 25.3052C130.74 26.7623 130.991 27.875 131.627 28.6433C132.29 29.4116 133.31 29.7957 134.687 29.7957C135.72 29.7957 136.634 29.544 137.429 29.0407C138.224 28.5108 138.794 27.7955 139.138 26.8948L143.708 27.6101C142.887 29.597 141.602 31.1601 139.853 32.2993C138.131 33.4385 136.158 34.0081 133.932 34.0081C130.991 34.0081 128.832 33.1206 127.455 31.3455C126.077 29.544 125.666 27.0802 126.223 23.9541C126.779 20.8809 128.011 18.4568 129.919 16.6818C131.853 14.8803 134.224 13.9796 137.032 13.9796C139.84 13.9796 141.893 14.8803 143.191 16.6818C144.49 18.4568 144.887 20.8014 144.384 23.7156L144.105 25.3052H130.872ZM131.508 22.0466H139.814C139.999 20.9074 139.761 19.9802 139.098 19.2649C138.436 18.5231 137.495 18.1522 136.277 18.1522C135.138 18.1522 134.157 18.4966 133.336 19.1854C132.515 19.8477 131.905 20.8014 131.508 22.0466Z" fill="white"/>
<path d="M162.418 27.9677C162.073 29.8222 161.093 31.3191 159.477 32.4582C157.887 33.5709 155.927 34.1273 153.596 34.1273C151.211 34.1273 149.33 33.5842 147.953 32.498C146.575 31.3853 145.833 29.862 145.727 27.928L150.416 27.2524C150.708 29.2394 151.953 30.2329 154.152 30.2329C155.053 30.2329 155.808 30.0474 156.417 29.6765C157.053 29.3056 157.424 28.8155 157.53 28.2062C157.636 27.5173 157.344 26.961 156.655 26.5371C155.967 26.0867 154.92 25.7953 153.516 25.6629C151.264 25.4509 149.608 24.8283 148.549 23.7951C147.489 22.7619 147.105 21.4108 147.396 19.7417C147.714 17.9667 148.641 16.5626 150.178 15.5294C151.741 14.4962 153.702 13.9796 156.059 13.9796C160.616 13.9796 163.146 15.887 163.65 19.702L158.881 20.616C158.589 18.788 157.424 17.874 155.384 17.874C154.51 17.874 153.781 18.0462 153.198 18.3906C152.615 18.735 152.284 19.1854 152.205 19.7417C152.072 20.3511 152.297 20.8412 152.88 21.2121C153.49 21.583 154.483 21.8612 155.861 22.0466C158.378 22.3645 160.166 23.0136 161.225 23.9938C162.312 24.9476 162.709 26.2722 162.418 27.9677Z" fill="white"/>
</svg>
