<svg width="41" height="40" viewBox="0 0 41 40" fill="none" xmlns="http://www.w3.org/2000/svg">
<rect x="0.0107422" width="40" height="40" rx="8" fill="#191919"/>
<path d="M13.7361 6.28767C14.8679 5.42878 16.4821 5.65039 17.3411 6.78217L19.8873 10.137C20.7462 11.2689 20.5246 12.883 19.3928 13.742L18.1993 14.647L18.2519 14.6309C17.3899 15.2836 15.9396 17.113 16.9772 19.2441L18.416 21.1403C19.275 22.2721 19.0543 23.8854 17.9226 24.7445L14.5676 27.2917C13.4358 28.1506 11.8216 27.929 10.9626 26.7972L8.41643 23.4423C7.55746 22.3105 7.77912 20.6963 8.91094 19.8373L12.2658 17.2911C12.8581 16.8418 13.5818 16.6901 14.2607 16.8079L14.2563 16.7974C13.5595 16.7355 12.8902 16.3951 12.4339 15.7939L9.88672 12.4389C9.02801 11.3071 9.2495 9.69283 10.3812 8.83387L13.7361 6.28767Z" fill="white"/>
<path d="M24.8325 12.9688C25.9643 12.1099 27.5785 12.3315 28.4375 13.4633L30.9837 16.8182C31.8426 17.95 31.6219 19.5643 30.4901 20.4233L27.1343 22.9694C26.5429 23.4181 25.8205 23.5689 25.1424 23.452L25.1526 23.4772C25.8389 23.5461 26.4957 23.8866 26.9456 24.4794L29.4918 27.8343C30.3508 28.966 30.1301 30.5793 28.9984 31.4384L25.6436 33.9846C24.5117 34.8437 22.8975 34.623 22.0384 33.4911L19.4922 30.1362C18.6332 29.0044 18.854 27.3902 19.9857 26.5311L21.523 25.364C22.3679 24.5388 23.3623 22.8935 22.4253 21.0197L20.9841 19.1201C20.125 17.9883 20.3457 16.374 21.4776 15.515L24.8325 12.9688Z" fill="white"/>
</svg>
