<svg width="80" height="80" viewBox="0 0 80 80" fill="none" xmlns="http://www.w3.org/2000/svg">
<path d="M24.6488 3.37992C27.6191 1.12566 31.8551 1.70626 34.1094 4.67652L40.7916 13.4809C43.0458 16.4512 42.4652 20.6862 39.4951 22.9406L36.3676 25.3135L36.4987 25.2732C34.2384 26.9845 30.4368 31.781 33.146 37.3672L36.933 42.3568C39.1872 45.3271 38.6066 49.5631 35.6364 51.8175L26.832 58.4996C23.8616 60.754 19.6257 60.1733 17.3713 57.203L10.6892 48.3986C8.43496 45.4282 9.01542 41.1932 11.9857 38.9389L20.7902 32.2558C22.2435 31.1529 23.9996 30.7296 25.6784 30.9318C23.9716 30.6943 22.355 29.8083 21.2309 28.3272L14.5478 19.5227C12.2936 16.5525 12.8742 12.3174 15.8442 10.063L24.6488 3.37992ZM26.0181 30.971C25.948 30.9648 25.8782 30.9559 25.8083 30.9476C25.8799 30.9576 25.9511 30.9702 26.0223 30.9825L26.0181 30.971Z" fill="#191919"/>
<path d="M53.7695 20.9135C56.7397 18.6593 60.9747 19.2399 63.2291 22.21L69.9122 31.0145C72.1664 33.9848 71.5858 38.2198 68.6158 40.4742L59.8112 47.1573C58.2608 48.3339 56.366 48.7356 54.5879 48.4309L54.609 48.4833C56.4104 48.6638 58.1346 49.5635 59.3154 51.1193L65.9975 59.9238C68.2519 62.894 67.6722 67.1291 64.702 69.3836L55.8976 76.0657C52.9273 78.3201 48.6912 77.7404 46.4368 74.7701L39.7547 65.9656C37.5003 62.9953 38.081 58.7594 41.0513 56.505L45.0813 53.4456C47.2979 51.2823 49.9113 46.965 47.458 42.0483L43.6684 37.0563C41.4142 34.0861 41.9948 29.851 44.9649 27.5966L53.7695 20.9135Z" fill="#191919"/>
</svg>
