<svg width="338" height="100" viewBox="0 0 338 100" fill="none" xmlns="http://www.w3.org/2000/svg">
<path d="M132.117 65.938C131.517 69.1662 129.811 71.7718 126.998 73.7548C124.231 75.6918 120.818 76.6602 116.76 76.6602C112.609 76.6602 109.335 75.7148 106.937 73.824C104.539 71.8871 103.248 69.2354 103.063 65.8689L111.226 64.6929C111.733 68.1516 113.901 69.881 117.728 69.881C119.296 69.881 120.611 69.5582 121.671 68.9126C122.778 68.2669 123.424 67.4138 123.608 66.3531C123.793 65.1541 123.285 64.1856 122.086 63.4477C120.887 62.6637 119.066 62.1565 116.622 61.9259C112.702 61.5569 109.819 60.4732 107.975 58.6746C106.13 56.8761 105.461 54.5241 105.969 51.6188C106.522 48.5289 108.136 46.0847 110.811 44.2862C113.532 42.4876 116.944 41.5883 121.049 41.5883C128.981 41.5883 133.385 44.9088 134.261 51.5496L125.96 53.1406C125.453 49.9585 123.424 48.3675 119.873 48.3675C118.351 48.3675 117.083 48.6673 116.068 49.2668C115.054 49.8663 114.477 50.6503 114.339 51.6188C114.108 52.6794 114.5 53.5326 115.515 54.1782C116.575 54.8239 118.305 55.3081 120.703 55.6309C125.084 56.1843 128.197 57.3142 130.042 59.0205C131.932 60.6807 132.624 62.9866 132.117 65.938ZM141.503 34.5325C141.733 33.2412 142.402 32.1113 143.509 31.1429C144.662 30.1744 145.884 29.6902 147.175 29.6902C148.512 29.6902 149.573 30.1744 150.357 31.1429C151.141 32.1113 151.418 33.2412 151.187 34.5325C150.957 35.8698 150.265 37.0228 149.112 37.9912C148.005 38.9597 146.783 39.4439 145.446 39.4439C144.154 39.4439 143.117 38.9597 142.333 37.9912C141.549 37.0228 141.272 35.8698 141.503 34.5325ZM140.742 43.1794H149.112L143.509 75H135.138L140.742 43.1794ZM154.725 43.1794H162.196L159.498 51.5496L160.674 51.8263C161.781 48.6903 163.372 46.2231 165.447 44.4245C167.569 42.626 169.944 41.7267 172.573 41.7267C174.878 41.7267 176.746 42.7413 178.176 44.7704C179.651 46.7534 180.136 49.0823 179.628 51.7571V52.103L180.735 52.3105C181.796 48.9901 183.433 46.4076 185.647 44.5629C187.86 42.6721 190.466 41.7267 193.463 41.7267C196.553 41.7267 198.836 42.9718 200.312 45.4622C201.788 47.9525 202.18 51.0884 201.488 54.87L197.96 75H189.52L192.979 55.6309C193.348 53.5557 193.118 51.9185 192.287 50.7195C191.457 49.5204 190.074 48.9209 188.137 48.9209C186.338 48.9209 184.817 49.5435 183.571 50.7887C182.326 52.0338 181.519 53.694 181.15 55.7693L177.761 75H169.321L172.78 55.6309C173.149 53.5557 172.941 51.9185 172.157 50.7195C171.373 49.5204 170.082 48.9209 168.284 48.9209C166.347 48.9209 164.71 49.5435 163.372 50.7887C162.081 52.0338 161.251 53.694 160.882 55.7693L157.492 75H149.122L154.725 43.1794ZM213.942 58.9513C213.343 62.2256 213.527 64.739 214.495 66.4914C215.51 68.2439 217.17 69.1201 219.476 69.1201C221.782 69.1201 223.742 68.2439 225.356 66.4914C226.97 64.739 228.054 62.2256 228.607 58.9513C229.207 55.7232 228.999 53.2328 227.985 51.4804C227.016 49.728 225.356 48.8517 223.004 48.8517C220.698 48.8517 218.738 49.728 217.124 51.4804C215.556 53.2328 214.495 55.7232 213.942 58.9513ZM205.503 58.9513C206.471 53.4634 208.639 49.1976 212.005 46.1539C215.372 43.1102 219.476 41.5883 224.318 41.5883C228.838 41.5883 232.32 43.1333 234.764 46.2231C237.254 49.3129 238.015 53.5557 237.047 58.9513C236.078 64.4854 233.888 68.7973 230.475 71.8871C227.108 74.9308 223.004 76.4527 218.162 76.4527C213.366 76.4527 209.815 74.9308 207.509 71.8871C205.203 68.7973 204.534 64.4854 205.503 58.9513ZM247.272 27.4766H255.642L247.272 75H238.901L247.272 27.4766ZM262.911 61.3033C262.68 63.8397 263.118 65.7766 264.225 67.114C265.378 68.4514 267.153 69.1201 269.551 69.1201C271.35 69.1201 272.941 68.682 274.324 67.8058C275.708 66.8834 276.7 65.6383 277.299 64.0703L285.254 65.3155C283.825 68.7742 281.588 71.4951 278.544 73.4781C275.547 75.4612 272.111 76.4527 268.237 76.4527C263.118 76.4527 259.36 74.9078 256.961 71.8179C254.563 68.682 253.849 64.3931 254.817 58.9513C255.786 53.6018 257.93 49.3821 261.25 46.2923C264.617 43.1563 268.744 41.5883 273.633 41.5883C278.521 41.5883 282.095 43.1563 284.355 46.2923C286.615 49.3821 287.306 53.4634 286.43 58.5363L285.946 61.3033H262.911ZM264.017 55.6309H278.475C278.798 53.6479 278.383 52.0338 277.23 50.7887C276.077 49.4974 274.44 48.8517 272.318 48.8517C270.335 48.8517 268.629 49.4513 267.199 50.6503C265.77 51.8032 264.709 53.4634 264.017 55.6309ZM317.823 65.938C317.223 69.1662 315.517 71.7718 312.704 73.7548C309.937 75.6918 306.524 76.6602 302.466 76.6602C298.315 76.6602 295.041 75.7148 292.643 73.824C290.245 71.8871 288.954 69.2354 288.769 65.8689L296.932 64.6929C297.439 68.1516 299.607 69.881 303.434 69.881C305.002 69.881 306.317 69.5582 307.377 68.9126C308.484 68.2669 309.13 67.4138 309.314 66.3531C309.499 65.1541 308.991 64.1856 307.792 63.4477C306.593 62.6637 304.772 62.1565 302.327 61.9259C298.408 61.5569 295.525 60.4732 293.681 58.6746C291.836 56.8761 291.167 54.5241 291.675 51.6188C292.228 48.5289 293.842 46.0847 296.517 44.2862C299.238 42.4876 302.65 41.5883 306.755 41.5883C314.687 41.5883 319.091 44.9088 319.967 51.5496L311.666 53.1406C311.159 49.9585 309.13 48.3675 305.579 48.3675C304.057 48.3675 302.789 48.6673 301.774 49.2668C300.76 49.8663 300.183 50.6503 300.045 51.6188C299.814 52.6794 300.206 53.5326 301.221 54.1782C302.281 54.8239 304.011 55.3081 306.409 55.6309C310.79 56.1843 313.903 57.3142 315.748 59.0205C317.638 60.6807 318.33 62.9866 317.823 65.938Z" fill="#191919"/>
<path d="M37.6488 15.4878C40.6191 13.2336 44.8551 13.8142 47.1094 16.7844L53.7916 25.5889C56.0458 28.5591 55.4652 32.7941 52.4951 35.0485L49.3676 37.4214L49.4987 37.3811C47.2384 39.0925 43.4368 43.8889 46.146 49.4751L49.933 54.4647C52.1872 57.435 51.6066 61.671 48.6364 63.9254L39.832 70.6075C36.8616 72.8619 32.6257 72.2812 30.3713 69.3109L23.6892 60.5065C21.435 57.5362 22.0154 53.3012 24.9857 51.0468L33.7902 44.3637C35.2435 43.2608 36.9996 42.8375 38.6784 43.0397C36.9716 42.8022 35.355 41.9162 34.2309 40.4352L27.5478 31.6306C25.2936 28.6604 25.8742 24.4253 28.8442 22.1709L37.6488 15.4878ZM39.0181 43.0789C38.948 43.0727 38.8782 43.0639 38.8083 43.0555C38.8799 43.0655 38.9511 43.0781 39.0223 43.0904L39.0181 43.0789Z" fill="#191919"/>
<path d="M66.7695 33.0214C69.7397 30.7672 73.9747 31.3478 76.2291 34.3179L82.9122 43.1225C85.1664 46.0927 84.5858 50.3277 81.6158 52.5821L72.8112 59.2652C71.2608 60.4419 69.366 60.8435 67.5879 60.5388L67.609 60.5912C69.4104 60.7717 71.1346 61.6714 72.3154 63.2272L78.9975 72.0317C81.2519 75.0019 80.6722 79.237 77.702 81.4915L68.8976 88.1736C65.9273 90.428 61.6912 89.8483 59.4368 86.878L52.7547 78.0735C50.5003 75.1032 51.081 70.8673 54.0513 68.6129L58.0813 65.5535C60.2979 63.3903 62.9113 59.0729 60.458 54.1562L56.6684 49.1642C54.4142 46.194 54.9948 41.9589 57.9649 39.7045L66.7695 33.0214Z" fill="#191919"/>
</svg>
