<svg width="80" height="80" viewBox="0 0 80 80" fill="none" xmlns="http://www.w3.org/2000/svg">
<path d="M24.648 3.37989C27.6184 1.12547 31.8543 1.70617 34.1087 4.67649L40.7909 13.48C43.0453 16.4502 42.4655 20.6863 39.4953 22.9407L36.3667 25.3144L36.4989 25.2733C34.2381 26.9851 30.435 31.7827 33.1477 37.3705L36.9322 42.3568C39.1865 45.3271 38.606 49.5621 35.6358 51.8165L26.8313 58.4986C23.8611 60.753 19.626 60.1732 17.3715 57.2031L10.6894 48.3987C8.43499 45.4284 9.01475 41.1923 11.985 38.9379L20.7895 32.2558C22.2466 31.1498 24.0084 30.7268 25.6913 30.9327C23.9797 30.698 22.3571 29.812 21.2301 28.3272L14.548 19.5228C12.2936 16.5525 12.8743 12.3166 15.8446 10.0621L24.648 3.37989ZM26.0174 30.97C25.9409 30.9633 25.8645 30.9541 25.7882 30.9448C25.8666 30.9555 25.9447 30.9682 26.0227 30.9816L26.0174 30.97Z" fill="white"/>
<path d="M53.769 20.9135C56.7392 18.6592 60.9753 19.239 63.2298 22.2092L69.9119 31.0136C72.1662 33.9839 71.5864 38.2199 68.6162 40.4744L59.8118 47.1565C58.2615 48.3332 56.3665 48.7356 54.5884 48.4311L54.6095 48.4835C56.4107 48.664 58.1353 49.5628 59.316 51.1185L65.9981 59.9229C68.2526 62.8933 67.6719 67.1292 64.7015 69.3836L55.8971 76.0657C52.9268 78.3199 48.6918 77.7395 46.4374 74.7693L39.7553 65.9648C37.501 62.9946 38.0808 58.7595 41.0508 56.505L45.0841 53.4431C47.2999 51.2795 49.9094 46.9644 47.4592 42.0505L43.6689 37.0564C41.4146 34.0862 41.9944 29.8501 44.9645 27.5957L53.769 20.9135Z" fill="white"/>
</svg>
