<svg width="41" height="40" viewBox="0 0 41 40" fill="none" xmlns="http://www.w3.org/2000/svg">
<rect x="0.0107422" width="40" height="40" rx="8" fill="white"/>
<path d="M13.7362 5.74687C14.868 4.88805 16.4822 5.10961 17.3412 6.24138L19.8874 9.59624C20.7462 10.7281 20.5246 12.3423 19.3929 13.2012L18.2005 14.1054L18.251 14.09C17.3889 14.7429 15.9397 16.5725 16.9773 18.7033L18.4161 20.5995C19.275 21.7313 19.0543 23.3446 17.9227 24.2037L14.5677 26.7509C13.4359 27.6098 11.8217 27.3882 10.9627 26.2564L8.4165 22.9015C7.55744 21.7697 7.77818 20.1554 8.91003 19.2964L12.2649 16.7502C12.8573 16.3006 13.5816 16.1492 14.2608 16.2671L14.2564 16.2566C13.5594 16.1947 12.8893 15.8542 12.433 15.2529L9.88679 11.8981C9.02795 10.7662 9.24952 9.15207 10.3813 8.29308L13.7362 5.74687Z" fill="#191919"/>
<path d="M24.8328 12.4283C25.9647 11.5694 27.5788 11.791 28.4378 12.9228L30.984 16.2777C31.8428 17.4095 31.6214 19.0227 30.4897 19.8817L27.1347 22.4289C26.5433 22.8776 25.8209 23.0283 25.1428 22.9116L25.1531 22.9357C25.8392 23.0046 26.4963 23.3454 26.9461 23.9379L29.4923 27.2928C30.3513 28.4246 30.1305 30.0389 28.9988 30.898L25.6439 33.4442C24.5121 34.3032 22.8978 34.0824 22.0388 32.9506L19.4926 29.5958C18.6335 28.4639 18.8544 26.8497 19.9861 25.9906L21.5223 24.8244C22.3671 23.9997 23.3626 22.3542 22.4265 20.4803L20.9835 18.5795C20.1246 17.4477 20.3462 15.8335 21.478 14.9745L24.8328 12.4283Z" fill="#191919"/>
</svg>
