<svg width="80" height="80" viewBox="0 0 80 80" fill="none" xmlns="http://www.w3.org/2000/svg">
<path d="M40 4.30176C59.7162 4.30176 75.6982 20.2838 75.6982 40C75.6982 59.7162 59.7162 75.6982 40 75.6982C20.2838 75.6982 4.30176 59.7162 4.30176 40C4.30176 20.2838 20.2838 4.30176 40 4.30176Z" fill="white" stroke="white" stroke-width="4.60345"/>
<path fill-rule="evenodd" clip-rule="evenodd" d="M24.7535 52.0385C23.6657 51.3731 23 50.1913 23 48.9185V41.8131C23 40.9695 23.6876 40.2858 24.5316 40.2894C24.8008 40.2894 25.0663 40.3622 25.2992 40.4967L41.3388 49.8458C42.2774 50.3913 42.8558 51.3949 42.8558 52.4822V59.8422C42.8595 60.8531 42.0409 61.6749 41.0296 61.6749C40.6913 61.6749 40.3566 61.5804 40.0692 61.4058L24.7535 52.0385ZM48.662 38.5513C49.6005 39.0967 50.1753 40.104 50.179 41.1876V56.1258C50.179 56.5658 49.9425 56.9731 49.5569 57.1876L46.0463 59.1622C46.0026 59.1876 45.9553 59.2058 45.9044 59.2204V50.9258C45.9044 49.8531 45.3405 48.8567 44.4165 48.304L30.3304 39.8822V30.5185C30.3304 29.6749 31.018 28.9913 31.862 28.9949C32.1312 28.9949 32.3968 29.0676 32.6296 29.2022L48.662 38.5513ZM55.6832 27.5185C56.6254 28.064 57.2038 29.0713 57.2038 30.1585V51.9767C57.2002 52.424 56.9528 52.8349 56.5599 53.0494L53.2312 54.8458V39.6567C53.2312 38.584 52.6673 37.5913 51.7506 37.0385L37.3516 28.4058V19.5258C37.3516 19.2567 37.4244 18.9913 37.5554 18.7585C37.981 18.0313 38.9159 17.784 39.6435 18.2058L55.6832 27.5185Z" fill="#191919"/>
</svg>
