<svg width="40" height="41" viewBox="0 0 40 41" fill="none" xmlns="http://www.w3.org/2000/svg">
<path d="M20.0312 2.19531C29.9045 2.19536 37.9082 10.199 37.9082 20.0723C37.9082 29.9454 29.9044 37.9492 20.0312 37.9492C10.158 37.9492 2.15435 29.9455 2.1543 20.0723C2.1543 10.199 10.158 2.19531 20.0312 2.19531Z" fill="#191919" stroke="#191919" stroke-width="2.30526"/>
<path fill-rule="evenodd" clip-rule="evenodd" d="M12.3957 26.1006C11.851 25.7674 11.5176 25.1756 11.5176 24.5382V20.98C11.5176 20.5576 11.8619 20.2152 12.2845 20.217C12.4193 20.217 12.5523 20.2535 12.6689 20.3208L20.7011 25.0026C21.1711 25.2757 21.4608 25.7783 21.4608 26.3228V30.0084C21.4626 30.5147 21.0527 30.9262 20.5462 30.9262C20.3768 30.9262 20.2092 30.8789 20.0653 30.7914L12.3957 26.1006ZM24.3683 19.3466C24.8383 19.6198 25.1261 20.1242 25.128 20.6668V28.1474C25.128 28.3677 25.0095 28.5717 24.8164 28.6791L23.0584 29.6679C23.0366 29.6806 23.0129 29.6898 22.9874 29.697V25.5434C22.9874 25.0062 22.705 24.5073 22.2423 24.2305L15.1884 20.0131V15.3241C15.1884 14.9016 15.5327 14.5593 15.9554 14.5611C16.0902 14.5611 16.2232 14.5975 16.3398 14.6649L24.3683 19.3466ZM27.8843 13.8218C28.3561 14.0949 28.6458 14.5993 28.6458 15.1438V26.0697C28.644 26.2936 28.5201 26.4994 28.3233 26.6068L26.6564 27.5064V19.9002C26.6564 19.363 26.374 18.8659 25.915 18.5891L18.7044 14.2661V9.81926C18.7044 9.6845 18.7409 9.55157 18.8064 9.43503C19.0196 9.07083 19.4878 8.947 19.8521 9.15824L27.8843 13.8218Z" fill="white"/>
</svg>
