<svg width="157" height="40" viewBox="0 0 157 40" fill="none" xmlns="http://www.w3.org/2000/svg">
<path d="M21.8301 2.12305C31.7033 2.1231 39.707 10.1268 39.707 20C39.707 29.8732 31.7033 37.8769 21.8301 37.877C11.9569 37.877 3.95317 29.8732 3.95312 20C3.95312 10.1268 11.9568 2.12305 21.8301 2.12305Z" fill="white" stroke="white" stroke-width="2.30526"/>
<path fill-rule="evenodd" clip-rule="evenodd" d="M14.1955 26.0286C13.6508 25.6953 13.3174 25.1035 13.3174 24.4662V20.908C13.3174 20.4855 13.6617 20.1432 14.0843 20.145C14.2192 20.145 14.3521 20.1814 14.4687 20.2488L22.5009 24.9305C22.9709 25.2037 23.2606 25.7063 23.2606 26.2507V29.9364C23.2624 30.4426 22.8525 30.8542 22.346 30.8542C22.1766 30.8542 22.009 30.8068 21.8651 30.7194L14.1955 26.0286ZM26.1681 19.2746C26.6381 19.5477 26.9259 20.0521 26.9278 20.5948V28.0754C26.9278 28.2957 26.8093 28.4997 26.6162 28.6071L24.8582 29.5959C24.8364 29.6086 24.8127 29.6177 24.7872 29.625V25.4714C24.7872 24.9342 24.5048 24.4352 24.0421 24.1584L16.9882 19.9411V15.252C16.9882 14.8296 17.3325 14.4872 17.7552 14.4891C17.89 14.4891 18.023 14.5255 18.1396 14.5929L26.1681 19.2746ZM29.6841 13.7497C30.1559 14.0229 30.4456 14.5273 30.4456 15.0718V25.9976C30.4438 26.2216 30.3199 26.4274 30.1231 26.5348L28.4562 27.4344V19.8282C28.4562 19.291 28.1738 18.7938 27.7148 18.5171L20.5042 14.1941V9.74723C20.5042 9.61248 20.5407 9.47955 20.6062 9.36301C20.8194 8.99881 21.2876 8.87498 21.6519 9.08622L29.6841 13.7497Z" fill="#191919"/>
<path d="M51.1348 34.5851C50.2204 34.5851 49.5139 34.3499 49.0151 33.8797C48.5442 33.3817 48.3086 32.6763 48.3086 31.7635V8.15353C48.3086 7.24066 48.5442 6.54904 49.0151 6.07884C49.5139 5.58091 50.2204 5.33195 51.1348 5.33195H65.9722C66.665 5.33195 67.1913 5.5117 67.5515 5.87137C67.9394 6.23104 68.1334 6.74274 68.1334 7.40664C68.1334 8.09826 67.9394 8.63768 67.5515 9.0249C67.1913 9.38456 66.665 9.56432 65.9722 9.56432H53.4207V17.6141H65.0579C65.7782 17.6141 66.3185 17.7939 66.6788 18.1535C67.039 18.5132 67.2191 19.0387 67.2191 19.7303C67.2191 20.4219 67.039 20.9474 66.6788 21.3071C66.3185 21.6667 65.7782 21.8465 65.0579 21.8465H53.4207V30.3527H65.9722C66.665 30.3527 67.1913 30.5324 67.5515 30.8921C67.9394 31.2518 68.1334 31.7773 68.1334 32.4689C68.1334 33.1605 67.9394 33.686 67.5515 34.0456C67.1913 34.4053 66.665 34.5851 65.9722 34.5851H51.1348ZM79.5495 35C77.2498 35 75.5181 34.3499 74.3543 33.0498C73.1906 31.722 72.6087 29.7856 72.6087 27.2407V7.61411C72.6087 6.75651 72.8304 6.10656 73.2737 5.6639C73.7171 5.22124 74.3543 5 75.1856 5C76.0168 5 76.654 5.22124 77.0974 5.6639C77.5684 6.10656 77.8039 6.75651 77.8039 7.61411V26.9917C77.8039 28.2642 78.0671 29.2046 78.5936 29.8133C79.1477 30.4219 79.9236 30.7261 80.921 30.7261C81.1426 30.7261 81.3505 30.7261 81.5445 30.7261C81.7385 30.6984 81.9323 30.6709 82.1263 30.6432C82.5142 30.5879 82.7775 30.6984 82.916 30.9751C83.0545 31.2241 83.1238 31.7497 83.1238 32.5519C83.1238 33.2435 82.9853 33.7829 82.7082 34.1701C82.431 34.5573 81.9739 34.7925 81.3367 34.8755C81.0595 34.9032 80.7686 34.9308 80.4639 34.9585C80.1591 34.9862 79.8542 35 79.5495 35ZM92.8216 35C90.5219 35 88.7901 34.3499 87.6264 33.0498C86.4627 31.722 85.8808 29.7856 85.8808 27.2407V7.61411C85.8808 6.75651 86.1024 6.10656 86.5458 5.6639C86.9892 5.22124 87.6264 5 88.4576 5C89.2889 5 89.9261 5.22124 90.3695 5.6639C90.8404 6.10656 91.076 6.75651 91.076 7.61411V26.9917C91.076 28.2642 91.3392 29.2046 91.8657 29.8133C92.4198 30.4219 93.1956 30.7261 94.1931 30.7261C94.4147 30.7261 94.6225 30.7261 94.8165 30.7261C95.0105 30.6984 95.2044 30.6709 95.3984 30.6432C95.7862 30.5879 96.0496 30.6984 96.1881 30.9751C96.3265 31.2241 96.3959 31.7497 96.3959 32.5519C96.3959 33.2435 96.2574 33.7829 95.9803 34.1701C95.7031 34.5573 95.2459 34.7925 94.6087 34.8755C94.3316 34.9032 94.0407 34.9308 93.7359 34.9585C93.4312 34.9862 93.1263 35 92.8216 35ZM106.509 35C104.819 35 103.42 34.6958 102.312 34.0871C101.203 33.451 100.372 32.5104 99.8179 31.2656C99.2914 30.0207 99.0282 28.4717 99.0282 26.6183V16.5768C99.0282 15.6916 99.2498 15.0415 99.6932 14.6266C100.137 14.1839 100.774 13.9627 101.605 13.9627C102.436 13.9627 103.073 14.1839 103.517 14.6266C103.988 15.0415 104.223 15.6916 104.223 16.5768V26.7012C104.223 28.1397 104.514 29.2046 105.096 29.8963C105.678 30.5879 106.606 30.9336 107.881 30.9336C109.266 30.9336 110.402 30.4634 111.289 29.5228C112.175 28.5547 112.619 27.2822 112.619 25.7054V16.5768C112.619 15.6916 112.84 15.0415 113.284 14.6266C113.727 14.1839 114.364 13.9627 115.196 13.9627C116.027 13.9627 116.664 14.1839 117.107 14.6266C117.578 15.0415 117.814 15.6916 117.814 16.5768V32.2614C117.814 34.0319 116.969 34.917 115.279 34.917C114.475 34.917 113.852 34.6958 113.408 34.2531C112.965 33.7829 112.743 33.119 112.743 32.2614V29.1079L113.325 30.3527C112.743 31.8465 111.857 32.9945 110.665 33.7967C109.502 34.5988 108.116 35 106.509 35ZM125.881 34.917C125.05 34.917 124.413 34.6958 123.969 34.2531C123.526 33.7829 123.304 33.119 123.304 32.2614V16.5768C123.304 15.7192 123.526 15.0692 123.969 14.6266C124.413 14.1839 125.036 13.9627 125.84 13.9627C126.643 13.9627 127.267 14.1839 127.71 14.6266C128.153 15.0692 128.375 15.7192 128.375 16.5768V19.6058L127.918 18.361C128.472 16.9779 129.331 15.8851 130.494 15.083C131.658 14.2808 133.044 13.8797 134.65 13.8797C136.286 13.8797 137.629 14.2669 138.681 15.0415C139.735 15.8161 140.469 17.0055 140.884 18.61H140.302C140.858 17.1439 141.772 15.9958 143.045 15.166C144.321 14.3084 145.788 13.8797 147.451 13.8797C149.004 13.8797 150.277 14.1839 151.275 14.7925C152.3 15.4012 153.062 16.3278 153.56 17.5726C154.059 18.7897 154.309 20.3389 154.309 22.2199V32.2614C154.309 33.119 154.074 33.7829 153.602 34.2531C153.16 34.6958 152.521 34.917 151.69 34.917C150.859 34.917 150.222 34.6958 149.778 34.2531C149.336 33.7829 149.113 33.119 149.113 32.2614V22.4274C149.113 20.8783 148.851 19.7441 148.324 19.0249C147.825 18.3057 146.967 17.9461 145.747 17.9461C144.39 17.9461 143.323 18.4302 142.547 19.3983C141.772 20.3389 141.383 21.6528 141.383 23.3402V32.2614C141.383 33.119 141.162 33.7829 140.718 34.2531C140.276 34.6958 139.637 34.917 138.806 34.917C137.975 34.917 137.325 34.6958 136.853 34.2531C136.411 33.7829 136.188 33.119 136.188 32.2614V22.4274C136.188 20.8783 135.925 19.7441 135.398 19.0249C134.899 18.3057 134.055 17.9461 132.863 17.9461C131.506 17.9461 130.439 18.4302 129.663 19.3983C128.887 20.3389 128.499 21.6528 128.499 23.3402V32.2614C128.499 34.0319 127.627 34.917 125.881 34.917Z" fill="white"/>
</svg>
