<svg width="264" height="80" viewBox="0 0 264 80" fill="none" xmlns="http://www.w3.org/2000/svg">
<path d="M40 4.30176C59.7162 4.30176 75.6982 20.2838 75.6982 40C75.6982 59.7162 59.7162 75.6982 40 75.6982C20.2838 75.6982 4.30176 59.7162 4.30176 40C4.30176 20.2838 20.2838 4.30176 40 4.30176Z" fill="white" stroke="white" stroke-width="4.60345"/>
<path fill-rule="evenodd" clip-rule="evenodd" d="M24.7535 52.0385C23.6657 51.3731 23 50.1913 23 48.9185V41.8131C23 40.9695 23.6876 40.2858 24.5316 40.2894C24.8008 40.2894 25.0663 40.3622 25.2992 40.4967L41.3388 49.8458C42.2774 50.3913 42.8558 51.3949 42.8558 52.4822V59.8422C42.8595 60.8531 42.0409 61.6749 41.0296 61.6749C40.6913 61.6749 40.3566 61.5804 40.0692 61.4058L24.7535 52.0385ZM48.662 38.5513C49.6005 39.0967 50.1753 40.104 50.179 41.1876V56.1258C50.179 56.5658 49.9425 56.9731 49.5569 57.1876L46.0463 59.1622C46.0026 59.1876 45.9553 59.2058 45.9044 59.2204V50.9258C45.9044 49.8531 45.3405 48.8567 44.4165 48.304L30.3304 39.8822V30.5185C30.3304 29.6749 31.018 28.9913 31.862 28.9949C32.1312 28.9949 32.3968 29.0676 32.6296 29.2022L48.662 38.5513ZM55.6832 27.5185C56.6254 28.064 57.2038 29.0713 57.2038 30.1585V51.9767C57.2002 52.424 56.9528 52.8349 56.5599 53.0494L53.2312 54.8458V39.6567C53.2312 38.584 52.6673 37.5913 51.7506 37.0385L37.3516 28.4058V19.5258C37.3516 19.2567 37.4244 18.9913 37.5554 18.7585C37.981 18.0313 38.9159 17.784 39.6435 18.2058L55.6832 27.5185Z" fill="#191919"/>
<path d="M95.5592 63.5569C94.0842 63.5569 92.9444 63.1771 92.1398 62.4176C91.38 61.6134 91 60.4741 91 58.9997V20.8662C91 19.3918 91.38 18.2748 92.1398 17.5153C92.9444 16.7111 94.0842 16.309 95.5592 16.309H119.495C120.613 16.309 121.462 16.5993 122.043 17.1802C122.669 17.7611 122.982 18.5876 122.982 19.6599C122.982 20.777 122.669 21.6482 122.043 22.2736C121.462 22.8545 120.613 23.1448 119.495 23.1448H99.2468V36.1464H118.02C119.182 36.1464 120.054 36.4367 120.635 37.0177C121.216 37.5986 121.507 38.4473 121.507 39.5643C121.507 40.6814 121.216 41.5301 120.635 42.111C120.054 42.692 119.182 42.9823 118.02 42.9823H99.2468V56.7211H119.495C120.613 56.7211 121.462 57.0114 122.043 57.5923C122.669 58.1732 122.982 59.0219 122.982 60.139C122.982 61.2561 122.669 62.1048 122.043 62.6857C121.462 63.2666 120.613 63.5569 119.495 63.5569H95.5592ZM141.398 64.2271C137.688 64.2271 134.895 63.1771 133.017 61.0773C131.14 58.9327 130.201 55.8051 130.201 51.6947V19.995C130.201 18.6098 130.559 17.5601 131.274 16.8451C131.989 16.1302 133.017 15.7728 134.358 15.7728C135.699 15.7728 136.727 16.1302 137.442 16.8451C138.202 17.5601 138.582 18.6098 138.582 19.995V51.2926C138.582 53.3479 139.007 54.8668 139.856 55.8498C140.75 56.8328 142.002 57.3242 143.611 57.3242C143.968 57.3242 144.303 57.3242 144.616 57.3242C144.929 57.2795 145.242 57.235 145.555 57.1902C146.181 57.1009 146.606 57.2795 146.829 57.7263C147.052 58.1284 147.164 58.9774 147.164 60.273C147.164 61.3901 146.941 62.2613 146.494 62.8867C146.047 63.5122 145.309 63.892 144.281 64.0261C143.834 64.0708 143.365 64.1153 142.873 64.1601C142.382 64.2049 141.89 64.2271 141.398 64.2271ZM162.809 64.2271C159.099 64.2271 156.305 63.1771 154.428 61.0773C152.55 58.9327 151.612 55.8051 151.612 51.6947V19.995C151.612 18.6098 151.969 17.5601 152.685 16.8451C153.4 16.1302 154.428 15.7728 155.769 15.7728C157.11 15.7728 158.138 16.1302 158.853 16.8451C159.613 17.5601 159.993 18.6098 159.993 19.995V51.2926C159.993 53.3479 160.417 54.8668 161.267 55.8498C162.16 56.8328 163.412 57.3242 165.021 57.3242C165.379 57.3242 165.714 57.3242 166.027 57.3242C166.34 57.2795 166.653 57.235 166.966 57.1902C167.591 57.1009 168.016 57.2795 168.24 57.7263C168.463 58.1284 168.575 58.9774 168.575 60.273C168.575 61.3901 168.351 62.2613 167.904 62.8867C167.457 63.5122 166.72 63.892 165.692 64.0261C165.245 64.0708 164.775 64.1153 164.284 64.1601C163.792 64.2049 163.3 64.2271 162.809 64.2271ZM184.89 64.2271C182.163 64.2271 179.906 63.7357 178.118 62.7527C176.33 61.7252 174.989 60.206 174.095 58.1955C173.246 56.1849 172.821 53.683 172.821 50.6894V34.471C172.821 33.0413 173.179 31.9913 173.894 31.3211C174.609 30.6061 175.637 30.2488 176.978 30.2488C178.319 30.2488 179.347 30.6061 180.062 31.3211C180.822 31.9913 181.202 33.0413 181.202 34.471V50.8234C181.202 53.1468 181.672 54.8668 182.61 55.9839C183.549 57.1009 185.046 57.6593 187.102 57.6593C189.337 57.6593 191.17 56.8999 192.6 55.3807C194.03 53.817 194.746 51.7617 194.746 49.215V34.471C194.746 33.0413 195.103 31.9913 195.818 31.3211C196.534 30.6061 197.562 30.2488 198.903 30.2488C200.244 30.2488 201.272 30.6061 201.987 31.3211C202.747 31.9913 203.127 33.0413 203.127 34.471V59.8039C203.127 62.6634 201.763 64.0931 199.037 64.0931C197.741 64.0931 196.735 63.7357 196.02 63.0208C195.304 62.2613 194.947 61.189 194.947 59.8039V54.7105L195.886 56.7211C194.947 59.1337 193.517 60.988 191.594 62.2836C189.717 63.5792 187.482 64.2271 184.89 64.2271ZM216.141 64.0931C214.8 64.0931 213.772 63.7357 213.056 63.0208C212.341 62.2613 211.984 61.189 211.984 59.8039V34.471C211.984 33.0858 212.341 32.036 213.056 31.3211C213.772 30.6061 214.777 30.2488 216.073 30.2488C217.37 30.2488 218.376 30.6061 219.091 31.3211C219.806 32.036 220.163 33.0858 220.163 34.471V39.3633L219.426 37.3527C220.32 35.1189 221.705 33.3539 223.583 32.0583C225.459 30.7627 227.696 30.1148 230.287 30.1148C232.926 30.1148 235.093 30.7402 236.79 31.9913C238.491 33.2424 239.673 35.1634 240.344 37.7549H239.405C240.301 35.387 241.776 33.5327 243.83 32.1923C245.887 30.8072 248.255 30.1148 250.937 30.1148C253.442 30.1148 255.496 30.6061 257.106 31.5892C258.76 32.5722 259.989 34.0688 260.793 36.0794C261.598 38.0452 262 40.5474 262 43.5855V59.8039C262 61.189 261.622 62.2613 260.86 63.0208C260.147 63.7357 259.117 64.0931 257.776 64.0931C256.435 64.0931 255.408 63.7357 254.692 63.0208C253.978 62.2613 253.619 61.189 253.619 59.8039V43.9205C253.619 41.4186 253.195 39.5866 252.345 38.425C251.541 37.2635 250.157 36.6826 248.188 36.6826C246 36.6826 244.278 37.4645 243.026 39.0282C241.776 40.5474 241.148 42.6694 241.148 45.395V59.8039C241.148 61.189 240.792 62.2613 240.076 63.0208C239.362 63.7357 238.332 64.0931 236.991 64.0931C235.65 64.0931 234.602 63.7357 233.84 63.0208C233.127 62.2613 232.767 61.189 232.767 59.8039V43.9205C232.767 41.4186 232.344 39.5866 231.494 38.425C230.689 37.2635 229.327 36.6826 227.404 36.6826C225.214 36.6826 223.493 37.4645 222.242 39.0282C220.99 40.5474 220.364 42.6694 220.364 45.395V59.8039C220.364 62.6634 218.956 64.0931 216.141 64.0931Z" fill="white"/>
</svg>
