<svg width="156" height="40" viewBox="0 0 156 40" fill="none" xmlns="http://www.w3.org/2000/svg">
<path d="M20.0312 2.12305C29.9045 2.1231 37.9082 10.1268 37.9082 20C37.9082 29.8732 29.9044 37.8769 20.0312 37.877C10.158 37.877 2.15435 29.8732 2.1543 20C2.1543 10.1268 10.158 2.12305 20.0312 2.12305Z" fill="#191919" stroke="#191919" stroke-width="2.30526"/>
<path fill-rule="evenodd" clip-rule="evenodd" d="M12.3957 26.0283C11.851 25.6951 11.5176 25.1033 11.5176 24.4659V20.9078C11.5176 20.4853 11.8619 20.1429 12.2845 20.1448C12.4193 20.1448 12.5523 20.1812 12.6689 20.2486L20.7011 24.9303C21.1711 25.2034 21.4608 25.706 21.4608 26.2505V29.9362C21.4626 30.4424 21.0527 30.8539 20.5462 30.8539C20.3768 30.8539 20.2092 30.8066 20.0653 30.7192L12.3957 26.0283ZM24.3683 19.2743C24.8383 19.5475 25.1261 20.0519 25.128 20.5945V28.0751C25.128 28.2955 25.0095 28.4994 24.8164 28.6068L23.0584 29.5956C23.0366 29.6084 23.0129 29.6175 22.9874 29.6248V25.4711C22.9874 24.9339 22.705 24.435 22.2423 24.1582L15.1884 19.9408V15.2518C15.1884 14.8293 15.5327 14.487 15.9554 14.4888C16.0902 14.4888 16.2232 14.5252 16.3398 14.5926L24.3683 19.2743ZM27.8843 13.7495C28.3561 14.0226 28.6458 14.5271 28.6458 15.0715V25.9974C28.644 26.2214 28.5201 26.4271 28.3233 26.5346L26.6564 27.4341V19.8279C26.6564 19.2907 26.374 18.7936 25.915 18.5168L18.7044 14.1938V9.74699C18.7044 9.61224 18.7409 9.47931 18.8064 9.36276C19.0196 8.99857 19.4878 8.87473 19.8521 9.08597L27.8843 13.7495Z" fill="white"/>
<path d="M48.3965 34.5851C47.4821 34.5851 46.7756 34.3499 46.2769 33.8797C45.8059 33.3817 45.5703 32.6763 45.5703 31.7635V8.15353C45.5703 7.24066 45.8059 6.54904 46.2769 6.07884C46.7756 5.58091 47.4821 5.33195 48.3965 5.33195H63.2339C63.9267 5.33195 64.453 5.5117 64.8133 5.87137C65.2011 6.23104 65.3951 6.74274 65.3951 7.40664C65.3951 8.09826 65.2011 8.63768 64.8133 9.0249C64.453 9.38456 63.9267 9.56432 63.2339 9.56432H50.6824V17.6141H62.3196C63.0399 17.6141 63.5802 17.7939 63.9405 18.1535C64.3007 18.5132 64.4808 19.0387 64.4808 19.7303C64.4808 20.4219 64.3007 20.9474 63.9405 21.3071C63.5802 21.6667 63.0399 21.8465 62.3196 21.8465H50.6824V30.3527H63.2339C63.9267 30.3527 64.453 30.5324 64.8133 30.8921C65.2011 31.2518 65.3951 31.7773 65.3951 32.4689C65.3951 33.1605 65.2011 33.686 64.8133 34.0456C64.453 34.4053 63.9267 34.5851 63.2339 34.5851H48.3965ZM76.8112 35C74.5116 35 72.7798 34.3499 71.6161 33.0498C70.4523 31.722 69.8705 29.7856 69.8705 27.2407V7.61411C69.8705 6.75651 70.0921 6.10656 70.5355 5.6639C70.9788 5.22124 71.6161 5 72.4473 5C73.2785 5 73.9157 5.22124 74.3591 5.6639C74.8301 6.10656 75.0656 6.75651 75.0656 7.61411V26.9917C75.0656 28.2642 75.3288 29.2046 75.8553 29.8133C76.4094 30.4219 77.1853 30.7261 78.1828 30.7261C78.4044 30.7261 78.6122 30.7261 78.8062 30.7261C79.0002 30.6984 79.194 30.6709 79.388 30.6432C79.7759 30.5879 80.0392 30.6984 80.1777 30.9751C80.3162 31.2241 80.3855 31.7497 80.3855 32.5519C80.3855 33.2435 80.247 33.7829 79.9699 34.1701C79.6928 34.5573 79.2356 34.7925 78.5984 34.8755C78.3212 34.9032 78.0303 34.9308 77.7256 34.9585C77.4209 34.9862 77.116 35 76.8112 35ZM90.0833 35C87.7836 35 86.0518 34.3499 84.8881 33.0498C83.7244 31.722 83.1425 29.7856 83.1425 27.2407V7.61411C83.1425 6.75651 83.3641 6.10656 83.8075 5.6639C84.2509 5.22124 84.8881 5 85.7193 5C86.5506 5 87.1878 5.22124 87.6312 5.6639C88.1022 6.10656 88.3377 6.75651 88.3377 7.61411V26.9917C88.3377 28.2642 88.6009 29.2046 89.1274 29.8133C89.6815 30.4219 90.4573 30.7261 91.4548 30.7261C91.6764 30.7261 91.8842 30.7261 92.0782 30.7261C92.2723 30.6984 92.4661 30.6709 92.6601 30.6432C93.048 30.5879 93.3113 30.6984 93.4498 30.9751C93.5883 31.2241 93.6576 31.7497 93.6576 32.5519C93.6576 33.2435 93.5191 33.7829 93.242 34.1701C92.9648 34.5573 92.5077 34.7925 91.8704 34.8755C91.5933 34.9032 91.3024 34.9308 90.9976 34.9585C90.6929 34.9862 90.388 35 90.0833 35ZM103.771 35C102.081 35 100.682 34.6958 99.5733 34.0871C98.4649 33.451 97.6337 32.5104 97.0796 31.2656C96.5531 30.0207 96.2899 28.4717 96.2899 26.6183V16.5768C96.2899 15.6916 96.5115 15.0415 96.9549 14.6266C97.3983 14.1839 98.0355 13.9627 98.8667 13.9627C99.698 13.9627 100.335 14.1839 100.779 14.6266C101.25 15.0415 101.485 15.6916 101.485 16.5768V26.7012C101.485 28.1397 101.776 29.2046 102.358 29.8963C102.94 30.5879 103.868 30.9336 105.143 30.9336C106.528 30.9336 107.664 30.4634 108.551 29.5228C109.437 28.5547 109.881 27.2822 109.881 25.7054V16.5768C109.881 15.6916 110.102 15.0415 110.545 14.6266C110.989 14.1839 111.626 13.9627 112.457 13.9627C113.289 13.9627 113.926 14.1839 114.369 14.6266C114.84 15.0415 115.076 15.6916 115.076 16.5768V32.2614C115.076 34.0319 114.231 34.917 112.54 34.917C111.737 34.917 111.114 34.6958 110.67 34.2531C110.227 33.7829 110.005 33.119 110.005 32.2614V29.1079L110.587 30.3527C110.005 31.8465 109.119 32.9945 107.927 33.7967C106.763 34.5988 105.378 35 103.771 35ZM123.143 34.917C122.312 34.917 121.674 34.6958 121.231 34.2531C120.788 33.7829 120.566 33.119 120.566 32.2614V16.5768C120.566 15.7192 120.788 15.0692 121.231 14.6266C121.674 14.1839 122.298 13.9627 123.101 13.9627C123.905 13.9627 124.528 14.1839 124.971 14.6266C125.415 15.0692 125.636 15.7192 125.636 16.5768V19.6058L125.179 18.361C125.734 16.9779 126.592 15.8851 127.756 15.083C128.919 14.2808 130.306 13.8797 131.912 13.8797C133.548 13.8797 134.891 14.2669 135.943 15.0415C136.997 15.8161 137.73 17.0055 138.146 18.61H137.564C138.119 17.1439 139.034 15.9958 140.307 15.166C141.582 14.3084 143.05 13.8797 144.713 13.8797C146.265 13.8797 147.539 14.1839 148.536 14.7925C149.562 15.4012 150.323 16.3278 150.822 17.5726C151.321 18.7897 151.57 20.3389 151.57 22.2199V32.2614C151.57 33.119 151.336 33.7829 150.864 34.2531C150.422 34.6958 149.783 34.917 148.952 34.917C148.121 34.917 147.484 34.6958 147.04 34.2531C146.598 33.7829 146.375 33.119 146.375 32.2614V22.4274C146.375 20.8783 146.112 19.7441 145.585 19.0249C145.087 18.3057 144.229 17.9461 143.009 17.9461C141.652 17.9461 140.585 18.4302 139.808 19.3983C139.034 20.3389 138.645 21.6528 138.645 23.3402V32.2614C138.645 33.119 138.424 33.7829 137.98 34.2531C137.538 34.6958 136.899 34.917 136.068 34.917C135.237 34.917 134.587 34.6958 134.115 34.2531C133.672 33.7829 133.45 33.119 133.45 32.2614V22.4274C133.45 20.8783 133.187 19.7441 132.66 19.0249C132.161 18.3057 131.317 17.9461 130.125 17.9461C128.768 17.9461 127.701 18.4302 126.925 19.3983C126.149 20.3389 125.761 21.6528 125.761 23.3402V32.2614C125.761 34.0319 124.888 34.917 123.143 34.917Z" fill="#191919"/>
</svg>
