<svg width="41" height="40" viewBox="0 0 41 40" fill="none" xmlns="http://www.w3.org/2000/svg">
<path d="M20.8281 2.12305C30.7013 2.1231 38.7051 10.1268 38.7051 20C38.705 29.8732 30.7013 37.8769 20.8281 37.877C10.9549 37.877 2.95122 29.8732 2.95117 20C2.95117 10.1268 10.9549 2.12305 20.8281 2.12305Z" fill="white" stroke="white" stroke-width="2.30526"/>
<path fill-rule="evenodd" clip-rule="evenodd" d="M13.1935 26.0286C12.6488 25.6953 12.3154 25.1035 12.3154 24.4662V20.908C12.3154 20.4855 12.6597 20.1432 13.0824 20.145C13.2172 20.145 13.3502 20.1814 13.4668 20.2488L21.4989 24.9305C21.9689 25.2037 22.2586 25.7063 22.2586 26.2507V29.9364C22.2604 30.4426 21.8505 30.8542 21.3441 30.8542C21.1747 30.8542 21.0071 30.8068 20.8631 30.7194L13.1935 26.0286ZM25.1661 19.2746C25.6361 19.5477 25.924 20.0521 25.9258 20.5948V28.0754C25.9258 28.2957 25.8074 28.4997 25.6143 28.6071L23.8563 29.5959C23.8344 29.6086 23.8107 29.6177 23.7852 29.625V25.4714C23.7852 24.9342 23.5029 24.4352 23.0401 24.1584L15.9863 19.9411V15.252C15.9863 14.8296 16.3306 14.4872 16.7532 14.4891C16.8881 14.4891 17.021 14.5255 17.1376 14.5929L25.1661 19.2746ZM28.6821 13.7497C29.154 14.0229 29.4436 14.5273 29.4436 15.0718V25.9976C29.4418 26.2216 29.3179 26.4274 29.1212 26.5348L27.4543 27.4344V19.8282C27.4543 19.291 27.1719 18.7938 26.7128 18.5171L19.5023 14.1941V9.74723C19.5023 9.61248 19.5387 9.47955 19.6043 9.36301C19.8174 8.99881 20.2856 8.87498 20.65 9.08622L28.6821 13.7497Z" fill="#191919"/>
</svg>
